<?xml version="1.0" encoding="utf-8"?>
<!-- Generator: Adobe Illustrator 24.2.3, SVG Export Plug-In . SVG Version: 6.00 Build 0)  -->
<svg version="1.1" id="Layer_1" xmlns="http://www.w3.org/2000/svg" xmlns:xlink="http://www.w3.org/1999/xlink" x="0px" y="0px"
	 viewBox="0 0 300 100" style="enable-background:new 0 0 300 100;" xml:space="preserve">
<style type="text/css">
	.st0{fill-rule:evenodd;clip-rule:evenodd;fill:#C6C6C6;}
</style>
<g>
	<g>
		<path class="st0" d="M193.4,40.7l-7.7,18.5h4.1l1-2.5h9.1l1,2.5h4.2l-7.7-18.5H193.4z M195.3,44.8l3.5,9.2h-7L195.3,44.8z"/>
		<path class="st0" d="M145.8,44h-4.5v6.5h4.6c2.3,0,3.8-1.1,3.8-3.2C149.7,45.2,148.2,44,145.8,44z M137.5,40.7h8.4
			c4.7,0,7.6,2.3,7.6,6.4c0,2.7-1.4,4.6-3.5,5.7v0.3l4.4,5.9v0.4h-4.2l-4.1-5.7h-4.9v5.7h-3.8L137.5,40.7z"/>
		<path class="st0" d="M162,44v12h3.3c3.6,0,6.3-2.1,6.3-6s-2.7-6-6.3-6C165.3,44,162,44,162,44z M165.6,59.3h-7.3V40.7h7.3
			c6.1,0,9.9,3.8,9.9,9.3S171.7,59.3,165.6,59.3z"/>
		<path class="st0" d="M179.3,59.3h3.8V40.7h-3.8V59.3z"/>
	</g>
	<path class="st0" d="M123.8,40.3c-0.9,0-7.7,0-11.2,9.1c-2.6,7-7.5,6.8-7.6,6.8h-0.1c-3.4,0-6-2.7-6-6.1c0-3.4,2.6-6.1,6-6.1
		c1.6,0,3.1,0.6,4.2,1.7l2.1-2.9c-1.8-1.6-4-2.4-6.4-2.4c-5.6,0-9.8,4-9.8,9.7c0,5.6,4,9.7,9.7,9.7c0,0,0.1,0,0.2,0
		c1.4,0,7.7-0.5,11-9.1c2.6-6.9,7.5-6.8,7.6-6.8h0.1c3.4,0,6,2.7,6,6.1c0,3.4-2.6,6.1-6,6.1h-0.1c0,0-2.7,0.1-5.3-2.6l-1.9,3.3
		c3.2,3,6.6,3,7.2,3c5.6,0,9.7-4,9.7-9.7C133.5,44.4,129.5,40.3,123.8,40.3"/>
</g>
</svg>
