<?xml version="1.0" encoding="utf-8"?>
<!-- Generator: Adobe Illustrator 24.2.3, SVG Export Plug-In . SVG Version: 6.00 Build 0)  -->
<svg version="1.1" id="Layer_1" xmlns="http://www.w3.org/2000/svg" xmlns:xlink="http://www.w3.org/1999/xlink" x="0px" y="0px"
	 viewBox="0 0 300 100" style="enable-background:new 0 0 300 100;" xml:space="preserve">
<style type="text/css">
	.st0{fill-rule:evenodd;clip-rule:evenodd;fill:#C6C6C6;}
</style>
<g>
	<g transform="translate(293)">
		<path class="st0" d="M-107.7,51.9l1.7-4.9l1.6,4.9H-107.7z M-125.9,49.8h-0.9v-4.7h0.8c1.4,0,2.2,0.9,2.2,2.5
			C-123.8,48.4-124.5,49.8-125.9,49.8z M-136.2,51.9l1.7-4.9l1.6,4.9H-136.2z M-88.4,45.1v-0.4H-94v0.4h0.9v7.8l-5.3-8.2h-2.5v0.4
			h0.9v10.4h-1.5l-3.8-11.3l-4,11.3h-1.5V45.1h0.9v-0.4h-2.3l-2.9,8.5l-3.1-8.5h-2.3v0.4h0.9v10.4h-1.8c-0.5,0-0.9-0.4-0.9-1.2v-1.6
			c0-1.2-0.4-2.3-1.6-2.7c1.1-0.3,1.9-1.4,1.9-2.5c0-1.6-1.2-2.8-3.5-2.8h-3.4V45h0.9v10.4h-1.8l-3.8-11.3l-4,11.3h-0.8v0.4h2.2
			v-0.4h-1l1.1-3.2h3.6l1.1,3.2h-1.4v0.4h7.5v-0.4h-1.4v-5.2h0.9c1.3,0,2,0.5,2,1.8v1c0,2.3,1.5,2.9,2.3,2.9h3.2v-0.4h-1v-9.2
			l3.6,9.7l3.4-10v9.5h-0.9v0.4h5.2v-0.4h-1l1.1-3.2h3.6l1.1,3.2h-1.4v0.4h5.8v-0.4h-0.9v-9.9l6.9,10.6V45.1h2.1v10.4h-0.9v0.4h3.2
			v-0.4h-1V45.1H-88.4L-88.4,45.1z"/>
	</g>
	<path class="st0" d="M144.3,55.9c-2.8,0-3-3.7-3-5.5c0-1.8,0.2-5.5,3-5.5s3,3.7,3,5.5C147.3,52.1,147.1,55.9,144.3,55.9z
		 M144.3,44.5c-3,0-4.9,3.3-4.9,5.9c0,2.9,2.1,5.9,4.9,5.9s4.9-2.9,4.9-5.9C149.2,47.8,147.1,44.5,144.3,44.5z M135.8,45.1h0.9v10.4
		h-0.9v0.4h3.3v-0.4h-0.9V45.1h0.9v-0.4h-3.3L135.8,45.1 M121.3,49.8h-0.9v-4.7h0.8c1.4,0,2.2,0.9,2.2,2.5
		C123.4,48.4,122.7,49.8,121.3,49.8z M125.7,55.6c-0.5,0-0.9-0.5-0.9-1.2v-1.7c0-1.3-0.4-2.3-1.6-2.7c1.1-0.3,1.8-1.4,1.8-2.5
		c0-1.6-1.2-2.8-3.5-2.8h-3.4v0.4h0.9v10.4h-0.9v0.4h3.7v-0.4h-1.4v-5.3h0.9c1.3,0,2,0.5,2,1.9v1.1c0,2.3,1.5,2.9,2.3,2.9
		c0.5,0,0.8-0.1,1-0.4l-0.2-0.3C126.1,55.6,125.9,55.6,125.7,55.6L125.7,55.6z M112.8,55.9c-2.8,0-3-3.7-3-5.5c0-1.8,0.2-5.5,3-5.5
		s3,3.7,3,5.5C115.8,52.1,115.7,55.9,112.8,55.9z M112.8,44.5c-3,0-4.9,3.3-4.9,5.9c0,2.9,2.1,5.9,4.9,5.9s4.9-2.9,4.9-5.9
		C117.7,47.8,115.6,44.5,112.8,44.5z M104.3,45.1h0.9v10.4h-0.9v0.4h3.3v-0.4h-0.9V45.1h0.9v-0.4h-3.3V45.1 M100.7,51.6h1v2.1
		c0,1.1-0.8,2.2-2.2,2.2c-2.7,0-2.9-3.4-2.9-5.5c0-1.9,0.2-5.5,3.2-5.5c1.1,0,2.3,1,2.6,3.2h0.4v-3.6h-0.4c-0.1,0.4-0.3,0.5-0.7,0.5
		s-0.9-0.6-1.9-0.6c-3.3,0-5,3.5-5,5.9c0,2.5,1.9,5.9,4.8,5.9c1.6,0,1.7-1,2.7-1c0.3,0,0.5,0.3,0.5,0.7h0.4v-4.4h0.9v-0.4h-3.4V51.6
		 M132.2,51.6h1v2.1c0,1.1-0.8,2.2-2.2,2.2c-2.7,0-2.9-3.4-2.9-5.5c0-1.9,0.2-5.5,3.2-5.5c1.1,0,2.3,1,2.6,3.2h0.4v-3.6h-0.4
		c-0.1,0.4-0.3,0.5-0.7,0.5c-0.4,0-0.9-0.6-1.9-0.6c-3.3,0-5,3.5-5,5.9c0,2.5,1.9,5.9,4.8,5.9c1.6,0,1.7-1,2.7-1
		c0.3,0,0.5,0.3,0.5,0.7h0.4v-4.4h0.9v-0.4h-3.4V51.6"/>
</g>
</svg>
