<?xml version="1.0" encoding="utf-8"?>
<!-- Generator: Adobe Illustrator 24.2.3, SVG Export Plug-In . SVG Version: 6.00 Build 0)  -->
<svg version="1.1" id="Layer_1" xmlns="http://www.w3.org/2000/svg" xmlns:xlink="http://www.w3.org/1999/xlink" x="0px" y="0px"
	 viewBox="0 0 300 100" style="enable-background:new 0 0 300 100;" xml:space="preserve">
<style type="text/css">
	.st0{fill-rule:evenodd;clip-rule:evenodd;fill:#BDBDBD;}
</style>
<g>
	<path class="st0" d="M137.4,41.5l-6.1,10.7c-0.1,0.2-1.4,2.1-3.8,2.3c-2.5,0.1-4.5-2.2-4.5-4.7c0.1-2.5,1.9-4.4,4.4-4.5
		c2.1,0,3.6,1.6,3.6,1.7c0.5,0.4,0.7,0.7,1.1,1.2l2.3-3.9c-0.4-0.4-0.6-0.6-1.1-1c-1.3-1.1-3.2-2.1-5.7-2.1c-2.5,0-5.1,1-7,3.5
		c-1.2,1.6-1.7,3.1-1.8,5.1c0,2.5,0.9,4.5,2.3,6c2.3,2.3,5,2.9,6.4,2.9c2.1-0.1,3.6-0.6,5.1-1.5c0.5-0.4,1-0.7,1.4-1.3h3.9v2.4h4
		V41.6L137.4,41.5L137.4,41.5L137.4,41.5z M137.8,52.3h-2.1l2.1-3.8V52.3z"/>
	<path class="st0" d="M145.7,58.4V45.5h-3.2v-3.9H153v3.9h-3.2v12.9H145.7z"/>
	<path class="st0" d="M162.2,51.9H158v6.4h-4.2V41.6h4.2V48h4.2v-6.3h4.2v16.8h-4.2V51.9z"/>
	<path class="st0" d="M200.8,41.6v9.3l-6.2-9.3h-3.8v5.6c-0.4-1.3-1.2-2.5-2.2-3.5c-1.6-1.6-3.8-2.5-6-2.5c-2.4,0-4.5,0.8-6.2,2.5
		c-1.7,1.6-2.6,3.8-2.6,6c0,1.8,0.5,3.5,1.4,4.9H172v-13h-4.2v16.8h9v-1.8c1.6,1.4,3.5,2.1,5.7,2.1c2.4,0,4.6-0.9,6.3-2.6
		c1-1,1.6-2.1,2.1-3.4v5.7h4.2v-9.4l6.3,9.3h3.6V41.6H200.8L200.8,41.6z M182.6,54.5c-2.3,0-4.5-2-4.5-4.7c0-2.5,2-4.4,4.5-4.4
		c2.4,0,4.4,2,4.4,4.4C187,52.6,185,54.5,182.6,54.5z"/>
	<path class="st0" d="M118.7,45.2v-3.7h-9.2v6.9c-0.3-2-1.1-3.6-2.4-4.8c-1.8-1.6-3.6-2-6.3-2h-5.8v16.8h6.3c2.4,0,4-0.4,5.8-2.1
		c1.3-1.3,2.1-2.8,2.3-4.7v6.7h9.2v-3.6h-5.1v-3.1h4.5V48h-4.5v-2.7C113.6,45.2,118.7,45.2,118.7,45.2z M100.8,54.7h-1.7v-9.5h1.6
		c3.1,0,4.7,1.7,4.7,4.7C105.5,53.2,104,54.7,100.8,54.7z"/>
</g>
</svg>
