<?xml version="1.0" encoding="utf-8"?>
<!-- Generator: Adobe Illustrator 24.2.3, SVG Export Plug-In . SVG Version: 6.00 Build 0)  -->
<svg version="1.1" id="Layer_1" xmlns="http://www.w3.org/2000/svg" xmlns:xlink="http://www.w3.org/1999/xlink" x="0px" y="0px"
	 viewBox="0 0 300 100" style="enable-background:new 0 0 300 100;" xml:space="preserve">
<style type="text/css">
	.st0{fill-rule:evenodd;clip-rule:evenodd;fill:#C6C6C6;}
</style>
<path class="st0" d="M201.2,49.4c0-1.1,0.8-1.9,1.9-1.9c1.1,0,1.9,0.9,1.9,1.9c0,1.1-0.8,1.9-1.9,1.9
	C202,51.4,201.2,50.5,201.2,49.4z"/>
<path class="st0" d="M197.3,57.1h3v-9.5h-3V57.1z M189.2,51.8h3.6c-0.1-1.3-0.8-2.1-1.8-2.1C190,49.8,189.3,50.5,189.2,51.8z
	 M195.7,52.7h-6.5c0.1,1.4,0.7,2.3,1.8,2.3c0.9,0,1.6-0.5,1.8-1.3h2.9c-0.4,2.3-2.1,3.6-4.7,3.6c-3,0-4.8-1.8-4.8-5
	c0-3.1,1.8-4.9,4.8-4.9c3,0,4.7,1.8,4.7,4.9V52.7z M186.3,57.1h-3.6l-3.3-4.8h0v4.8h-3V42.7h3v9.4h0l3-4.5h3.5l-3.2,4.5L186.3,57.1z
	 M171.2,52.4c0-1.4-0.7-2.5-1.9-2.5c-1.2,0-1.9,1-1.9,2.5c0,1.6,0.7,2.5,1.9,2.5S171.2,53.8,171.2,52.4z M174.1,47.6v9.5h-3v-3.3h0
	c0,2.2-1.2,3.6-3.2,3.6c-2.2,0-3.6-1.8-3.6-5c0-3.1,1.4-4.9,3.6-4.9c2.1,0,3.2,1.3,3.2,3.6h0v-3.3L174.1,47.6L174.1,47.6z
	 M162.6,51.4v5.8h-3v-5.6c0-1-0.5-1.6-1.4-1.6c-1,0-1.5,0.8-1.5,2.1v5.2h-3v-5.6c0-1-0.5-1.6-1.4-1.6c-1,0-1.5,0.8-1.5,2.1v5.2h-3
	v-9.5h3V51h0c0-2.2,1.1-3.6,2.9-3.6c1.9,0,3,1.4,3,3.6h0c0-2.2,1-3.6,2.8-3.6C161.5,47.5,162.6,48.9,162.6,51.4z M139.5,51.8h3.6
	c-0.1-1.3-0.8-2.1-1.8-2.1C140.3,49.8,139.7,50.5,139.5,51.8z M146,52.7h-6.5c0.1,1.4,0.7,2.3,1.8,2.3c0.9,0,1.6-0.5,1.8-1.3h2.9
	c-0.4,2.3-2.1,3.6-4.7,3.6c-3,0-4.8-1.8-4.8-5c0-3.1,1.8-4.9,4.8-4.9c3,0,4.7,1.8,4.7,4.9V52.7z M135.7,47.6l-2.1,9.5h-5.8l-2.1-9.5
	h3.3l1.7,9.3h0l1.7-9.3C132.5,47.6,135.7,47.6,135.7,47.6z M121.5,52.4c0-1.4-0.7-2.5-1.9-2.5c-1.2,0-1.9,1-1.9,2.5
	c0,1.6,0.7,2.5,1.9,2.5S121.5,53.8,121.5,52.4z M124.5,47.6v9.5h-3v-3.3h0c0,2.2-1.2,3.6-3.2,3.6c-2.2,0-3.6-1.8-3.6-5
	c0-3.1,1.4-4.9,3.6-4.9c2.1,0,3.2,1.3,3.2,3.6h0v-3.3L124.5,47.6L124.5,47.6z M114.1,43.3l-2.2,13.9h-5.7l-1.7-13.6h0l-1.7,13.6
	h-5.7L95,43.3h3.4l1.9,13.6h0l1.8-13.6h5.1l1.8,13.6h0l1.9-13.6C110.9,43.3,114.1,43.3,114.1,43.3z"/>
</svg>
