<?xml version="1.0" encoding="utf-8"?>
<!-- Generator: Adobe Illustrator 24.2.3, SVG Export Plug-In . SVG Version: 6.00 Build 0)  -->
<svg version="1.1" id="Layer_1" xmlns="http://www.w3.org/2000/svg" xmlns:xlink="http://www.w3.org/1999/xlink" x="0px" y="0px"
	 viewBox="0 0 300 100" style="enable-background:new 0 0 300 100;" xml:space="preserve">
<style type="text/css">
	.st0{fill:#C6C6C6;}
</style>
<g>
	<path class="st0" d="M97.7,64.2c0,0.5-0.1,0.9-0.3,1.2c-0.2,0.3-0.6,0.5-1,0.5c-0.3,0-0.5-0.1-0.7-0.2c-0.2-0.1-0.3-0.2-0.5-0.4V67
		h-0.2v-4.3h0.2v0.6c0.1-0.2,0.3-0.3,0.5-0.5c0.2-0.1,0.5-0.2,0.7-0.2c0.3,0,0.7,0.2,1,0.4C97.6,63.3,97.8,63.7,97.7,64.2L97.7,64.2
		z M97.5,64.2c0-0.5-0.1-0.8-0.3-1.1s-0.5-0.4-0.8-0.3c-0.3,0-0.5,0.1-0.7,0.2c-0.2,0.2-0.3,0.3-0.5,0.6V65c0.1,0.2,0.3,0.4,0.5,0.5
		c0.2,0.1,0.5,0.2,0.7,0.2c0.3,0,0.6-0.1,0.8-0.3C97.4,65.1,97.5,64.7,97.5,64.2L97.5,64.2z"/>
	<path class="st0" d="M99.9,65.8c-0.3,0-0.5-0.1-0.8-0.2c-0.2-0.2-0.4-0.3-0.6-0.6c-0.2-0.3-0.2-0.5-0.2-0.8v-0.1
		c0-0.3,0.1-0.6,0.2-0.8s0.3-0.5,0.5-0.6c0.2-0.2,0.5-0.2,0.7-0.2c0.3,0,0.7,0.1,1,0.3c0.3,0.2,0.3,0.6,0.3,1v0.2h-2.6v0.2
		c0,0.3,0.1,0.5,0.2,0.7c0.2,0.5,0.7,0.7,1.2,0.7c0.2,0,0.4-0.1,0.6-0.1s0.3-0.2,0.5-0.3l0.1,0.1C100.8,65.7,100.4,65.8,99.9,65.8z
		 M99.8,62.8c-0.3,0-0.6,0.1-0.9,0.3c-0.2,0.2-0.3,0.6-0.4,0.9h2.4V64c0-0.2-0.1-0.4-0.2-0.6c-0.1-0.2-0.2-0.3-0.4-0.5
		C100.2,62.8,100,62.8,99.8,62.8z"/>
	<path class="st0" d="M103.4,62.8h-0.2c-0.3,0-0.5,0.1-0.7,0.3c-0.2,0.2-0.3,0.5-0.4,0.7v2h-0.2v-3.1h0.2v0.7
		c0.1-0.2,0.2-0.4,0.4-0.5c0.2-0.2,0.5-0.2,0.7-0.2C103.2,62.8,103.3,62.8,103.4,62.8C103.4,62.8,103.4,62.8,103.4,62.8z"/>
	<path class="st0" d="M106.2,65c0-0.3-0.3-0.6-1.1-0.8c-0.5-0.1-0.7-0.2-0.9-0.3c-0.2-0.1-0.3-0.3-0.3-0.6s0.1-0.5,0.3-0.6
		c0.3-0.2,0.6-0.2,0.9-0.2c0.3,0,0.6,0.1,0.9,0.3c0.2,0.2,0.3,0.4,0.3,0.7h-0.2c0-0.2-0.1-0.4-0.3-0.5c-0.2-0.2-0.5-0.2-0.8-0.2
		c-0.3,0-0.5,0.1-0.7,0.2c-0.2,0.1-0.3,0.3-0.3,0.5c0,0.1,0.1,0.2,0.1,0.3s0.2,0.2,0.3,0.2c0.2,0.1,0.5,0.2,0.7,0.2
		c0.2,0.1,0.5,0.1,0.7,0.2c0.2,0.1,0.3,0.2,0.3,0.3s0.1,0.3,0.1,0.4c0,0.3-0.1,0.5-0.3,0.6c-0.3,0.2-0.6,0.3-0.9,0.2
		c-0.3,0-0.7-0.1-0.9-0.3c-0.2-0.1-0.3-0.3-0.3-0.6h0.2c0,0.2,0.2,0.4,0.3,0.5c0.3,0.2,0.5,0.2,0.8,0.2c0.3,0,0.5-0.1,0.7-0.2
		C106.1,65.4,106.2,65.2,106.2,65z"/>
	<path class="st0" d="M107.1,64.2c0-0.3,0.1-0.6,0.2-0.8c0.1-0.2,0.3-0.5,0.6-0.6c0.2-0.2,0.5-0.2,0.8-0.2c0.3,0,0.6,0.1,0.8,0.2
		c0.2,0.1,0.4,0.3,0.6,0.6c0.2,0.3,0.2,0.5,0.2,0.8v0.2c0,0.3-0.1,0.6-0.2,0.8c-0.1,0.2-0.3,0.5-0.5,0.6c-0.5,0.3-1.1,0.3-1.5,0
		c-0.2-0.1-0.4-0.3-0.6-0.6c-0.2-0.3-0.2-0.5-0.2-0.8L107.1,64.2z M107.2,64.3c0,0.3,0.1,0.5,0.2,0.7c0.1,0.2,0.3,0.4,0.5,0.5
		c0.2,0.1,0.5,0.2,0.7,0.2c0.3,0,0.7-0.2,1-0.4c0.3-0.3,0.4-0.7,0.3-1v-0.1c0-0.3-0.1-0.5-0.2-0.7c-0.1-0.2-0.3-0.4-0.5-0.5
		c-0.2-0.1-0.5-0.2-0.7-0.2c-0.3,0-0.7,0.2-1,0.4C107.3,63.5,107.2,63.9,107.2,64.3L107.2,64.3z"/>
	<path class="st0" d="M111.1,63.4c0.1-0.2,0.3-0.5,0.5-0.6c0.2-0.2,0.5-0.2,0.7-0.2c0.3,0,0.7,0.1,0.8,0.3c0.2,0.2,0.3,0.5,0.3,0.9
		v2h-0.2v-2c0-0.3-0.1-0.6-0.2-0.7c-0.2-0.2-0.3-0.3-0.7-0.3c-0.3,0-0.6,0.1-0.8,0.3c-0.2,0.2-0.3,0.5-0.5,0.7v2h-0.1v-3.1h0.2V63.4
		z"/>
	<path class="st0" d="M116.7,65.8c-0.1-0.2-0.1-0.3-0.1-0.6c-0.2,0.2-0.3,0.3-0.6,0.5c-0.3,0.1-0.5,0.2-0.8,0.2
		c-0.3,0-0.6-0.1-0.8-0.2c-0.2-0.2-0.3-0.3-0.3-0.6c0-0.3,0.2-0.5,0.5-0.7c0.3-0.2,0.7-0.3,1.1-0.3h0.9v-0.5c0-0.2-0.1-0.5-0.3-0.6
		c-0.2-0.2-0.5-0.2-0.8-0.2c-0.3,0-0.6,0.1-0.8,0.2c-0.2,0.1-0.3,0.3-0.3,0.6h-0.1c0-0.3,0.2-0.5,0.3-0.7c0.3-0.2,0.6-0.3,0.9-0.3
		c0.3,0,0.6,0.1,0.9,0.3c0.2,0.2,0.3,0.5,0.3,0.7V65c0,0.3,0.1,0.6,0.1,0.7v0.1L116.7,65.8L116.7,65.8z M115.3,65.7
		c0.3,0,0.6-0.1,0.9-0.2c0.2-0.1,0.4-0.3,0.5-0.6v-0.7h-0.8c-0.5,0-0.9,0.1-1.1,0.3c-0.2,0.1-0.3,0.3-0.3,0.6c0,0.2,0.1,0.3,0.3,0.5
		C114.8,65.6,115.1,65.7,115.3,65.7z"/>
	<path class="st0" d="M118.1,65.8h-0.2v-4.5h0.2V65.8z"/>
	<path class="st0" d="M119.2,61.7c0-0.1,0-0.1,0.1-0.1s0.1-0.1,0.1-0.1s0.1,0,0.1,0.1s0.1,0.1,0.1,0.1s0,0.1-0.1,0.1
		c-0.1,0.1-0.1,0.1-0.1,0.1s-0.1,0-0.1-0.1C119.2,61.8,119.2,61.7,119.2,61.7z M119.4,65.8h-0.2v-3.1h0.2V65.8z"/>
	<path class="st0" d="M122.6,65c0-0.3-0.3-0.6-1.1-0.8c-0.5-0.1-0.7-0.2-0.9-0.3c-0.2-0.1-0.3-0.3-0.3-0.6s0.1-0.5,0.3-0.6
		c0.3-0.2,0.6-0.2,0.9-0.2c0.3,0,0.6,0.1,0.9,0.3c0.2,0.2,0.3,0.4,0.3,0.7h-0.2c0-0.2-0.1-0.4-0.3-0.5c-0.2-0.2-0.5-0.2-0.8-0.2
		c-0.3,0-0.5,0.1-0.7,0.2c-0.2,0.1-0.3,0.3-0.3,0.5c0,0.1,0.1,0.2,0.1,0.3s0.2,0.2,0.3,0.2c0.2,0.1,0.5,0.2,0.7,0.2
		c0.2,0.1,0.5,0.1,0.7,0.2c0.2,0.1,0.3,0.2,0.3,0.3s0.1,0.3,0.1,0.4c0,0.3-0.1,0.5-0.3,0.6c-0.3,0.2-0.6,0.3-0.9,0.2
		c-0.3,0-0.7-0.1-0.9-0.3c-0.2-0.1-0.3-0.3-0.3-0.6h0.2c0,0.2,0.2,0.4,0.3,0.5c0.3,0.2,0.5,0.2,0.8,0.2c0.3,0,0.5-0.1,0.7-0.2
		C122.5,65.4,122.6,65.2,122.6,65z"/>
	<path class="st0" d="M125,65.8c-0.3,0-0.5-0.1-0.8-0.2c-0.2-0.2-0.4-0.3-0.6-0.6c-0.2-0.3-0.2-0.5-0.2-0.8v-0.1
		c0-0.3,0.1-0.6,0.2-0.8s0.3-0.5,0.5-0.6c0.2-0.2,0.5-0.2,0.7-0.2c0.3,0,0.7,0.1,1,0.3c0.3,0.2,0.3,0.6,0.3,1v0.2h-2.6v0.2
		c0,0.3,0.1,0.5,0.2,0.7c0.2,0.5,0.7,0.7,1.2,0.7c0.2,0,0.4-0.1,0.6-0.1c0.2-0.1,0.3-0.2,0.5-0.3l0.1,0.1
		C125.9,65.7,125.5,65.8,125,65.8z M124.9,62.8c-0.3,0-0.6,0.1-0.9,0.3c-0.2,0.2-0.3,0.6-0.4,0.9h2.4V64c0-0.2-0.1-0.4-0.2-0.6
		c-0.1-0.2-0.2-0.3-0.4-0.5C125.4,62.8,125.1,62.8,124.9,62.8L124.9,62.8z"/>
	<path class="st0" d="M126.9,64.2c0-0.5,0.1-0.9,0.3-1.2c0.2-0.3,0.6-0.5,1-0.4c0.2,0,0.5,0.1,0.7,0.2c0.2,0.1,0.3,0.3,0.5,0.5v-1.9
		h0.2v4.4h-0.2v-0.5c-0.1,0.2-0.3,0.3-0.5,0.4c-0.2,0.1-0.5,0.2-0.7,0.2c-0.3,0-0.7-0.2-1-0.5C127,65.1,126.9,64.7,126.9,64.2
		L126.9,64.2z M127.1,64.2c0,0.5,0.1,0.8,0.3,1.1c0.2,0.3,0.5,0.4,0.8,0.3c0.3,0,0.5-0.1,0.7-0.2c0.2-0.1,0.3-0.3,0.5-0.5v-1.5
		c-0.2-0.5-0.6-0.8-1.2-0.8c-0.3,0-0.6,0.1-0.8,0.3C127.2,63.4,127.1,63.8,127.1,64.2L127.1,64.2z"/>
	<path class="st0" d="M131.9,64.2c0-0.3,0.1-0.6,0.2-0.8s0.3-0.5,0.6-0.6c0.2-0.2,0.5-0.2,0.8-0.2c0.3,0,0.6,0.1,0.8,0.2
		c0.2,0.1,0.4,0.3,0.6,0.6c0.2,0.3,0.2,0.5,0.2,0.8v0.2c0,0.3-0.1,0.6-0.2,0.8c-0.1,0.2-0.3,0.5-0.5,0.6c-0.2,0.2-0.5,0.2-0.8,0.2
		c-0.3,0-0.6-0.1-0.8-0.2c-0.2-0.1-0.4-0.3-0.6-0.6c-0.2-0.3-0.2-0.5-0.2-0.8L131.9,64.2z M132.1,64.3c0,0.3,0.1,0.5,0.2,0.7
		s0.3,0.4,0.5,0.5c0.2,0.1,0.5,0.2,0.7,0.2c0.3,0,0.7-0.2,1-0.4c0.3-0.3,0.3-0.7,0.3-1v-0.1c0-0.3-0.1-0.5-0.2-0.7
		c-0.1-0.2-0.3-0.4-0.5-0.5c-0.2-0.1-0.5-0.2-0.7-0.2c-0.3,0-0.7,0.2-1,0.4C132.2,63.5,132.1,63.9,132.1,64.3L132.1,64.3z"/>
	<path class="st0" d="M135.9,63.4c0.1-0.2,0.3-0.5,0.5-0.6c0.2-0.2,0.5-0.2,0.7-0.2c0.3,0,0.6,0.1,0.8,0.3s0.3,0.5,0.3,0.9v2h-0.2
		v-2c0-0.3-0.1-0.6-0.2-0.7s-0.3-0.3-0.7-0.3c-0.3,0-0.6,0.1-0.8,0.3s-0.3,0.5-0.5,0.7v2h-0.2v-3.1h0.2V63.4z"/>
	<path class="st0" d="M139.5,65.8h-0.2v-4.5h0.2V65.8z"/>
	<path class="st0" d="M140.6,61.7c0-0.1,0-0.1,0.1-0.1c0.1-0.1,0.1-0.1,0.1-0.1c0.1,0,0.1,0,0.1,0.1c0.1,0.1,0.1,0.1,0.1,0.1
		s0,0.1-0.1,0.1c-0.1,0.1-0.1,0.1-0.1,0.1c-0.1,0-0.1,0-0.1-0.1C140.6,61.8,140.6,61.7,140.6,61.7z M140.8,65.8h-0.2v-3.1h0.2V65.8z
		"/>
	<path class="st0" d="M142.1,63.4c0.1-0.2,0.3-0.5,0.5-0.6c0.2-0.2,0.5-0.2,0.7-0.2c0.3,0,0.6,0.1,0.8,0.3c0.2,0.2,0.3,0.5,0.3,0.9
		v2h-0.2v-2c0-0.3-0.1-0.6-0.2-0.7s-0.3-0.3-0.7-0.3c-0.3,0-0.6,0.1-0.8,0.3c-0.2,0.2-0.3,0.5-0.5,0.7v2h-0.2v-3.1h0.2L142.1,63.4
		L142.1,63.4z"/>
	<path class="st0" d="M146.8,65.8c-0.3,0-0.5-0.1-0.8-0.2c-0.2-0.2-0.4-0.3-0.6-0.6c-0.2-0.3-0.2-0.5-0.2-0.8v-0.1
		c0-0.3,0.1-0.6,0.2-0.8s0.3-0.5,0.5-0.6c0.2-0.2,0.5-0.2,0.7-0.2c0.3,0,0.7,0.1,1,0.3s0.3,0.6,0.3,1v0.2h-2.6v0.2
		c0,0.3,0.1,0.5,0.2,0.7c0.1,0.2,0.3,0.4,0.5,0.5c0.2,0.1,0.5,0.2,0.7,0.2c0.2,0,0.4-0.1,0.6-0.1s0.3-0.2,0.5-0.3l0.1,0.1
		C147.6,65.7,147.3,65.8,146.8,65.8z M146.7,62.8c-0.3,0-0.6,0.1-0.9,0.3s-0.3,0.6-0.4,0.9h2.4V64c0-0.2-0.1-0.4-0.2-0.6
		s-0.2-0.3-0.4-0.5C147.1,62.8,146.9,62.8,146.7,62.8L146.7,62.8z"/>
	<path class="st0" d="M152.8,65.8h-0.2v-2.1c0-0.3-0.1-0.6-0.2-0.7c-0.2-0.2-0.4-0.2-0.7-0.2c-0.3,0-0.7,0.2-0.9,0.5
		c-0.2,0.2-0.2,0.3-0.3,0.6v2h-0.2v-3.1h0.2v0.7c0.1-0.3,0.3-0.5,0.5-0.6c0.5-0.3,1-0.3,1.4-0.1c0.2,0.2,0.3,0.3,0.3,0.6
		c0.1-0.2,0.3-0.4,0.5-0.6c0.2-0.2,0.5-0.2,0.8-0.2c0.3,0,0.7,0.1,0.9,0.3s0.3,0.5,0.3,0.9v2H155v-2c0-0.3-0.1-0.6-0.2-0.8
		c-0.2-0.2-0.4-0.3-0.7-0.3c-0.3,0-0.7,0.2-1,0.5c-0.1,0.2-0.2,0.3-0.2,0.5L152.8,65.8z"/>
	<path class="st0" d="M158.4,65.8c-0.1-0.2-0.1-0.3-0.1-0.6c-0.2,0.2-0.3,0.3-0.6,0.5c-0.3,0.1-0.5,0.2-0.8,0.2s-0.6-0.1-0.8-0.2
		c-0.2-0.2-0.3-0.3-0.3-0.6c0-0.3,0.2-0.5,0.5-0.7s0.7-0.3,1.1-0.3h0.9v-0.5c0-0.2-0.1-0.5-0.3-0.6c-0.2-0.2-0.5-0.2-0.8-0.2
		c-0.3,0-0.6,0.1-0.8,0.2c-0.2,0.1-0.3,0.3-0.3,0.6H156c0-0.3,0.2-0.5,0.3-0.7c0.3-0.2,0.6-0.3,0.9-0.3c0.3,0,0.6,0.1,0.9,0.3
		c0.2,0.2,0.3,0.5,0.3,0.7V65c0,0.3,0.1,0.6,0.1,0.7v0.1L158.4,65.8L158.4,65.8z M157,65.7c0.3,0,0.6-0.1,0.9-0.2
		c0.2-0.1,0.4-0.3,0.5-0.6v-0.7h-0.8c-0.5,0-0.9,0.1-1.1,0.3c-0.2,0.1-0.3,0.3-0.3,0.6c0,0.2,0.1,0.3,0.3,0.5
		C156.5,65.6,156.8,65.7,157,65.7z"/>
	<path class="st0" d="M161.1,62.8h-0.2c-0.3,0-0.5,0.1-0.7,0.3c-0.2,0.2-0.3,0.5-0.4,0.7v2h-0.2v-3.1h0.2v0.7
		c0.1-0.2,0.2-0.4,0.4-0.5c0.2-0.2,0.5-0.2,0.7-0.2C160.9,62.8,161,62.8,161.1,62.8L161.1,62.8z"/>
	<path class="st0" d="M162.5,64.1L162.5,64.1l-0.5,0.4v1.3h-0.2v-4.5h0.2v2.9l0.4-0.3l1.6-1.3h0.3l-1.6,1.3l1.7,1.8h-0.2L162.5,64.1
		z"/>
	<path class="st0" d="M166,65.8c-0.3,0-0.6-0.1-0.8-0.2c-0.2-0.2-0.4-0.3-0.6-0.6c-0.2-0.3-0.2-0.5-0.2-0.8v-0.1
		c0-0.3,0.1-0.6,0.2-0.8s0.3-0.5,0.5-0.6c0.2-0.2,0.5-0.2,0.7-0.2c0.3,0,0.7,0.1,1,0.3c0.3,0.2,0.3,0.6,0.3,1v0.2h-2.6v0.2
		c0,0.3,0.1,0.5,0.2,0.7c0.2,0.5,0.7,0.7,1.2,0.7c0.2,0,0.4-0.1,0.6-0.1s0.3-0.2,0.5-0.3l0.1,0.1C166.9,65.7,166.5,65.8,166,65.8z
		 M165.9,62.8c-0.3,0-0.6,0.1-0.9,0.3s-0.3,0.6-0.4,0.9h2.4V64c0-0.2-0.1-0.4-0.2-0.6s-0.2-0.3-0.4-0.5
		C166.3,62.8,166.2,62.8,165.9,62.8z"/>
	<path class="st0" d="M168.4,61.8v0.9h0.8v0.2h-0.8v2.2c0,0.2,0.1,0.3,0.1,0.5c0.1,0.1,0.3,0.2,0.4,0.2s0.2,0,0.3-0.1l0.1,0.2
		c-0.1,0.1-0.2,0.1-0.3,0.1c-0.3,0-0.5-0.1-0.6-0.2c-0.1-0.1-0.2-0.3-0.2-0.6v-2.2h-0.6v-0.2h0.6v-0.9L168.4,61.8z"/>
	<path class="st0" d="M170.1,61.7c0-0.1,0-0.1,0.1-0.1c0.1-0.1,0.1-0.1,0.1-0.1c0.1,0,0.1,0,0.1,0.1c0.1,0.1,0.1,0.1,0.1,0.1
		s0,0.1-0.1,0.1c-0.1,0.1-0.1,0.1-0.1,0.1s-0.1,0-0.1-0.1C170.1,61.8,170.1,61.7,170.1,61.7z M170.4,65.8h-0.2v-3.1h0.2V65.8z"/>
	<path class="st0" d="M171.6,63.4c0.1-0.2,0.3-0.5,0.5-0.6c0.2-0.2,0.5-0.2,0.7-0.2c0.3,0,0.6,0.1,0.8,0.3c0.2,0.2,0.3,0.5,0.3,0.9
		v2h-0.2v-2c0-0.3-0.1-0.6-0.2-0.7s-0.3-0.3-0.7-0.3c-0.3,0-0.6,0.1-0.8,0.3c-0.2,0.2-0.3,0.5-0.5,0.7v2h-0.2v-3.1h0.2L171.6,63.4z"
		/>
	<path class="st0" d="M174.8,64.2c0-0.5,0.1-0.9,0.3-1.2c0.2-0.3,0.6-0.5,1-0.4c0.2,0,0.5,0.1,0.7,0.2c0.2,0.1,0.3,0.3,0.5,0.5v-0.6
		h0.2v3.1c0,0.4-0.1,0.7-0.3,1c-0.3,0.3-0.6,0.3-1,0.3c-0.2,0-0.5-0.1-0.6-0.2c-0.2-0.1-0.3-0.2-0.5-0.4l0.1-0.1
		c0.1,0.2,0.3,0.3,0.5,0.3c0.2,0.1,0.3,0.1,0.6,0.1c0.3,0.1,0.6-0.1,0.9-0.3c0.2-0.2,0.3-0.5,0.3-0.8v-0.5c-0.1,0.2-0.3,0.3-0.5,0.4
		c-0.2,0.1-0.5,0.2-0.7,0.2c-0.3,0-0.7-0.2-1-0.5C175,65.1,174.8,64.7,174.8,64.2L174.8,64.2z M175.1,64.2c0,0.5,0.1,0.8,0.3,1.1
		c0.2,0.3,0.5,0.4,0.8,0.3c0.3,0,0.5-0.1,0.7-0.2c0.2-0.1,0.3-0.3,0.5-0.5v-1.4c-0.2-0.6-0.6-0.8-1.2-0.8c-0.3,0-0.6,0.1-0.8,0.3
		C175.1,63.4,175.1,63.8,175.1,64.2L175.1,64.2z"/>
	<path class="st0" d="M182.2,65c0-0.3-0.3-0.6-1.1-0.8c-0.5-0.1-0.7-0.2-0.9-0.3c-0.2-0.1-0.3-0.3-0.3-0.6s0.1-0.5,0.3-0.6
		c0.3-0.2,0.6-0.2,0.9-0.2c0.3,0,0.6,0.1,0.9,0.3c0.2,0.2,0.3,0.4,0.3,0.7h-0.2c0-0.2-0.1-0.4-0.3-0.5c-0.2-0.2-0.5-0.2-0.8-0.2
		c-0.3,0-0.5,0.1-0.7,0.2c-0.2,0.1-0.3,0.3-0.3,0.5c0,0.1,0.1,0.2,0.1,0.3s0.2,0.2,0.3,0.2c0.2,0.1,0.5,0.2,0.7,0.2
		c0.2,0.1,0.5,0.1,0.7,0.2c0.2,0.1,0.3,0.2,0.3,0.3s0.1,0.3,0.1,0.4c0,0.3-0.1,0.5-0.3,0.6c-0.3,0.2-0.6,0.3-0.9,0.2
		c-0.3,0-0.7-0.1-0.9-0.3c-0.2-0.1-0.3-0.3-0.3-0.6h0.2c0,0.2,0.2,0.4,0.3,0.5c0.3,0.2,0.5,0.2,0.8,0.2s0.5-0.1,0.7-0.2
		C182.2,65.4,182.2,65.2,182.2,65z"/>
	<path class="st0" d="M183.1,64.2c0-0.3,0.1-0.6,0.2-0.8s0.3-0.5,0.6-0.6c0.2-0.2,0.5-0.2,0.8-0.2c0.3,0,0.6,0.1,0.8,0.2
		s0.4,0.3,0.6,0.6c0.2,0.3,0.2,0.5,0.2,0.8v0.2c0,0.3-0.1,0.6-0.2,0.8c-0.1,0.2-0.3,0.4-0.6,0.6c-0.2,0.2-0.5,0.2-0.8,0.2
		c-0.3,0-0.6-0.1-0.8-0.2c-0.2-0.1-0.4-0.3-0.6-0.6c-0.2-0.3-0.2-0.5-0.2-0.8V64.2z M183.3,64.3c0,0.3,0.1,0.5,0.2,0.7
		c0.1,0.2,0.3,0.4,0.5,0.5c0.2,0.1,0.5,0.2,0.7,0.2c0.3,0,0.7-0.2,1-0.4c0.3-0.3,0.3-0.7,0.3-1v-0.1c0-0.3-0.1-0.5-0.2-0.7
		c-0.1-0.2-0.3-0.4-0.5-0.5s-0.5-0.2-0.7-0.2c-0.3,0-0.7,0.2-1,0.4C183.3,63.5,183.3,63.9,183.3,64.3L183.3,64.3z"/>
	<path class="st0" d="M187.1,65.8H187v-4.5h0.2V65.8z"/>
	<path class="st0" d="M190.5,65.8v-0.5c-0.1,0.2-0.3,0.3-0.5,0.4c-0.2,0.1-0.5,0.2-0.7,0.2c-0.3,0-0.7-0.1-0.9-0.3
		c-0.2-0.2-0.3-0.5-0.3-0.9v-2h0.2v2c0,0.3,0.1,0.6,0.3,0.7c0.2,0.2,0.5,0.3,0.7,0.3c0.3,0,0.6-0.1,0.8-0.2c0.2-0.2,0.3-0.3,0.4-0.6
		v-2.2h0.2v3.2H190.5z"/>
	<path class="st0" d="M192.2,61.8v0.9h0.8v0.2h-0.8v2.2c0,0.2,0.1,0.3,0.1,0.5c0.1,0.1,0.3,0.2,0.4,0.2s0.2,0,0.3-0.1l0.1,0.2
		c-0.1,0.1-0.2,0.1-0.3,0.1c-0.3,0-0.5-0.1-0.6-0.2s-0.2-0.3-0.2-0.6v-2.2h-0.7v-0.2h0.6v-0.9L192.2,61.8z"/>
	<path class="st0" d="M193.8,61.7c0-0.1,0-0.1,0.1-0.1s0.1-0.1,0.1-0.1s0.1,0,0.1,0.1s0.1,0.1,0.1,0.1s0,0.1-0.1,0.1
		c-0.1,0.1-0.1,0.1-0.1,0.1s-0.1,0-0.1-0.1C193.9,61.8,193.8,61.7,193.8,61.7z M194.1,65.8h-0.2v-3.1h0.2V65.8z"/>
	<path class="st0" d="M195,64.2c0-0.3,0.1-0.6,0.2-0.8s0.3-0.5,0.6-0.6c0.2-0.2,0.5-0.2,0.8-0.2c0.3,0,0.6,0.1,0.8,0.2
		s0.4,0.3,0.6,0.6c0.2,0.3,0.2,0.5,0.2,0.8v0.2c0,0.3-0.1,0.6-0.2,0.8c-0.1,0.2-0.3,0.4-0.6,0.6c-0.2,0.2-0.5,0.2-0.8,0.2
		c-0.3,0-0.6-0.1-0.8-0.2c-0.2-0.1-0.4-0.3-0.6-0.6c-0.2-0.3-0.2-0.5-0.2-0.8V64.2z M195.1,64.3c0,0.3,0.1,0.5,0.2,0.7
		c0.1,0.2,0.3,0.4,0.5,0.5c0.2,0.1,0.5,0.2,0.7,0.2c0.3,0,0.7-0.2,1-0.4c0.3-0.3,0.3-0.7,0.3-1v-0.1c0-0.3-0.1-0.5-0.2-0.7
		c-0.1-0.2-0.3-0.4-0.5-0.5c-0.2-0.1-0.5-0.2-0.7-0.2c-0.3,0-0.7,0.2-1,0.4C195.2,63.5,195.1,63.9,195.1,64.3L195.1,64.3z"/>
	<path class="st0" d="M199,63.4c0.1-0.2,0.3-0.5,0.5-0.6c0.2-0.2,0.5-0.2,0.7-0.2c0.3,0,0.6,0.1,0.8,0.3s0.3,0.5,0.3,0.9v2h-0.2v-2
		c0-0.3-0.1-0.6-0.2-0.7s-0.3-0.3-0.7-0.3c-0.3,0-0.6,0.1-0.8,0.3s-0.3,0.5-0.5,0.7v2h-0.2v-3.1h0.2V63.4z"/>
	<path class="st0" d="M204.5,65c0-0.3-0.3-0.6-1.1-0.8c-0.5-0.1-0.7-0.2-0.9-0.3c-0.2-0.1-0.3-0.3-0.3-0.6s0.1-0.5,0.3-0.6
		c0.3-0.2,0.6-0.2,0.9-0.2c0.3,0,0.6,0.1,0.9,0.3c0.2,0.2,0.3,0.4,0.3,0.7h-0.2c0-0.2-0.1-0.4-0.3-0.5c-0.2-0.2-0.5-0.2-0.8-0.2
		c-0.3,0-0.5,0.1-0.7,0.2c-0.2,0.1-0.3,0.3-0.3,0.5c0,0.1,0.1,0.2,0.1,0.3s0.2,0.2,0.3,0.2c0.2,0.1,0.5,0.2,0.7,0.2
		c0.2,0.1,0.5,0.1,0.7,0.2c0.2,0.1,0.3,0.2,0.3,0.3c0.1,0.1,0.1,0.3,0.1,0.4c0,0.3-0.1,0.5-0.3,0.6c-0.3,0.2-0.6,0.3-0.9,0.2
		c-0.3,0-0.7-0.1-0.9-0.3c-0.2-0.1-0.3-0.3-0.3-0.6h0.2c0,0.2,0.2,0.4,0.3,0.5c0.3,0.2,0.5,0.2,0.8,0.2c0.3,0,0.5-0.1,0.7-0.2
		C204.4,65.4,204.5,65.2,204.5,65z"/>
	<path class="st0" d="M108.5,33.4h-7l-1.2,1.6h7.5c2.2,0,6.9-0.1,6.9,5.7c0,4.5-3.3,5.7-6.5,5.7H96.6v-6.9l-1.6,2v17.6h1.6V48h11.6
		c5.7,0,8.2-3.1,8.2-7.3C116.4,34.8,112.2,33.4,108.5,33.4z"/>
	<path class="st0" d="M131.9,33c-0.3,0-0.5,0-0.7,0.1l-1.3,1.5c0.7-0.1,1.3-0.2,2-0.2c7.8,0,12.1,5.8,12.1,11.9s-4.3,11.9-12.1,11.9
		c-7.7,0-11.9-5.5-12.1-11.5l-1.5,1.8c0.9,4.9,4.5,11.1,13.6,11.1c10.5,0,13.8-8.4,13.8-13.4S142.4,33,131.9,33z"/>
	<polygon class="st0" points="164.2,57 154.2,38.2 152.9,39.6 163.5,59 165.1,59 177.7,35.5 178,35.5 178,59 179.5,59 179.5,33.4 
		176.9,33.4 	"/>
	<polygon class="st0" points="149.2,59 150.8,59 150.8,42.2 149.2,44.2 	"/>
	<path class="st0" d="M193.9,34.5c6.8,0,8.6,3.4,8.7,6.4h1.7c-0.2-5.3-4.3-7.8-10.8-7.9l-1.2,1.5C192.8,34.5,193.3,34.5,193.9,34.5z
		"/>
	<path class="st0" d="M197,45.7l-5.3-1c-3.2-0.6-4.9-1.4-5.6-2.7l-1.2,1.4c1.2,1.4,3.3,2.2,6.6,2.8l4.8,1c5.4,1.1,6.9,2.3,6.9,5.3
		c0,3-2.3,5.6-8.7,5.6c-7,0-9.9-2.9-10-7.7h-1.7c0,5.8,3.2,9.1,11.8,9.1c8.1,0,10.4-3.7,10.4-7.2C205.1,48.4,202.2,46.8,197,45.7z"
		/>
</g>
</svg>
