<?xml version="1.0" encoding="utf-8"?>
<!-- Generator: Adobe Illustrator 24.2.3, SVG Export Plug-In . SVG Version: 6.00 Build 0)  -->
<svg version="1.1" id="Layer_1" xmlns="http://www.w3.org/2000/svg" xmlns:xlink="http://www.w3.org/1999/xlink" x="0px" y="0px"
	 viewBox="0 0 300 100" style="enable-background:new 0 0 300 100;" xml:space="preserve">
<style type="text/css">
	.st0{fill-rule:evenodd;clip-rule:evenodd;fill:#C6C6C6;}
</style>
<g>
	<path class="st0" d="M201.4,62.1v-0.7h1l-1-2.5l0,0.1V58h0.7l2,5c0.2,0.6,0.4,1.1,1,1.4v0h-2v0c0.5-0.2,0.4-0.3,0.1-1l-0.5-1.4
		H201.4z M201.4,58V59l-1,2.4h1v0.7h-1.2l-0.5,1.4c-0.2,0.6-0.2,0.8,0.2,1v0h-1.7h0.1c-0.1,0-0.1,0-0.1-0.1l0,0
		c0.5-0.3,0.7-0.8,0.8-1.4l1.7-4.1c0.1-0.4,0.3-0.8-0.2-0.9v0H201.4L201.4,58z M198.1,54.1v-0.5c0.1-0.3,0.1-0.6,0.1-0.8V49
		c0-0.2,0-0.5-0.1-0.8v-0.6h1.5v0c-0.5,0.2-0.4,1-0.4,1.4v3.7c0,0.4-0.1,1.1,0.4,1.3v0H198.1z M198.1,47.6v0.6
		c-0.1-0.2-0.2-0.4-0.4-0.5v0H198.1L198.1,47.6z M198.1,53.6v0.5h-0.4v0C197.9,54,198.1,53.8,198.1,53.6L198.1,53.6z M198.1,64.4
		L198.1,64.4c-0.5-0.4-1.1-0.8-1.5-1.3l-1.4-1.8c0.8-0.2,1.6-0.9,1.6-1.7c0-0.9-0.7-1.6-2-1.6h-2.3v0c0.5,0.2,0.5,0.9,0.5,1.4v3.7
		c0,0.4,0.1,1.1-0.5,1.3v0h1.9v0c-0.5-0.2-0.5-0.9-0.5-1.3v-4.4c0.2-0.1,0.5-0.1,0.7-0.1c0.7,0,1.3,0.4,1.3,1.1
		c0,0.9-0.9,1.3-1.7,1.4l0.9,1.4l1.2,1.5c0.3,0.4,0.6,0.5,1.1,0.5L198.1,64.4L198.1,64.4L198.1,64.4
		C198.1,64.5,198.1,64.4,198.1,64.4L198.1,64.4z M188.5,62.1v-0.7h1l-1-2.5l0,0.1V58h0.7l2,5c0.2,0.6,0.4,1.1,1,1.4v0h-2v0
		c0.5-0.2,0.4-0.3,0.1-1l-0.5-1.4H188.5L188.5,62.1z M188.5,54.1v-1.2c0-0.1,0-0.1,0-0.2l0.5-4.1c0-0.3,0.2-0.7-0.3-1v0h1.7v0
		c0,0.1,0.1,0.3,0.1,0.4l1.9,4.3l1.6-4.2c0.1-0.2,0.2-0.4,0.2-0.6v0h1.7v0c-0.2,0.1-0.3,0.4-0.3,0.6l0.6,4.8c0.1,0.4,0.1,0.7,0.5,1
		v0h-1.9v0c0.3-0.1,0.4-0.4,0.4-0.7l-0.6-4.7l-2.2,5.6c-0.5-0.4-0.6-0.7-0.9-1.2l-1.9-4.4l-0.5,4.2c-0.1,0.6-0.2,1.1,0.3,1.3v0
		H188.5z M188.5,52.9v1.2H188v0C188.3,53.8,188.4,53.3,188.5,52.9L188.5,52.9z M188.5,58V59l-1,2.4h1v0.7h-1.2l-0.5,1.4
		c-0.2,0.6-0.2,0.8,0.2,1v0h-1.8v0c0.6-0.3,0.7-0.8,0.9-1.4l1.7-4.1c0.1-0.4,0.3-0.8-0.2-0.9v0H188.5L188.5,58z M173.9,64.5
		L173.9,64.5c0.4-0.3,0.3-0.4,0-1.1l0-0.1v-2.7l1,2.4c0.2,0.6,0.4,1.1,0.9,1.4v0H173.9L173.9,64.5z M173.9,54v-0.8
		c1-0.3,1.7-1,1.7-2.3c0-1.4-0.7-2.2-1.7-2.5v-0.7c1.7,0.2,2.8,1.4,2.8,3.1C176.7,52.5,175.6,53.7,173.9,54L173.9,54z M179.1,51h0.7
		c0.3,0,0.7,0,0.9,0.3h0v-1h0c-0.1,0.1-0.3,0.1-0.4,0.1h-1.2v-1.8c0.3-0.1,0.7-0.1,1-0.1c0.5,0,0.8,0.1,1.2,0.4h0v-1.1h0
		c-0.2,0.1-0.3,0-0.5,0h-3.1v0c0.5,0.2,0.4,0.9,0.4,1.4v3.7c0,0.4,0.1,1.2-0.4,1.3v0h4.1l0.4-1.3h0c-0.5,0.4-1.2,0.6-1.8,0.6
		l-1.2-0.1V51L179.1,51z M184.5,53.3V49c0-0.4-0.1-1.1,0.4-1.4v0H183v0c0.5,0.2,0.4,0.9,0.4,1.4v3.7c0,0.4,0.1,1.2-0.4,1.3v0h4
		l0.5-1.3h0c-0.5,0.4-1.1,0.6-1.7,0.6L184.5,53.3L184.5,53.3z M180.6,62.8l-1.9-4.3c-0.1-0.1-0.1-0.3-0.1-0.4v0h-1.7v0
		c0.5,0.2,0.4,0.7,0.3,0.9l-0.6,4.1c-0.1,0.5-0.1,1-0.5,1.4v0h1.6v0c-0.5-0.2-0.4-0.7-0.3-1.3l0.6-4.2l1.8,4.4
		c0.3,0.5,0.4,0.8,0.9,1.2l2.2-5.6l0.6,4.7c0,0.3-0.1,0.6-0.4,0.7v0h1.9v0c-0.4-0.3-0.5-0.5-0.5-1l-0.7-4.8c0-0.2,0.1-0.5,0.3-0.6v0
		h-1.7v0c0,0.2-0.1,0.4-0.1,0.6L180.6,62.8z M173.9,47.7v0.7c-0.3-0.1-0.6-0.1-0.9-0.1c-0.3,0-0.6,0.1-0.9,0.1v-0.8h1
		C173.3,47.6,173.6,47.7,173.9,47.7L173.9,47.7z M173.9,53.2V54c-0.3,0.1-0.6,0.1-0.8,0.1h-0.9v-0.8c0.2,0,0.5,0.1,0.7,0.1
		C173.2,53.4,173.5,53.4,173.9,53.2L173.9,53.2z M173.9,60.7v2.7l-0.5-1.3h-1.3v-0.7h1l-1-2.5l0,0.1V58h0.7L173.9,60.7L173.9,60.7z
		 M173.9,64.4L173.9,64.4l-0.1,0.1v0C173.8,64.5,173.8,64.4,173.9,64.4L173.9,64.4z M172.1,43.7v-1.1c0.4,0.5,1,0.9,1.4,1.2h-0.9
		C172.4,43.7,172.3,43.7,172.1,43.7z M172.1,42.5v1.1c-0.2-0.1-0.4-0.2-0.6-0.4l-1.2-1.5l-0.9-1.4c0.8-0.1,1.7-0.5,1.7-1.4
		c0-0.7-0.6-1.1-1.2-1.1c-0.2,0-0.5,0-0.7,0.1v4.4c0,0.4-0.1,1.1,0.4,1.3v0h-0.7v-6.5h1.2c1.3,0,2,0.7,2,1.6c0,0.8-0.7,1.5-1.6,1.7
		l1.4,1.8C172,42.4,172.1,42.5,172.1,42.5L172.1,42.5z M172.1,47.6v0.8v4.9v0.8h-1.4v0c0.5-0.3,0.4-0.8,0.4-1.4V49
		c0-0.5,0.1-1.2-0.4-1.3v0H172.1L172.1,47.6z M172.1,58V59l-1,2.4h1v0.7h-1.2l-0.5,1.4c-0.2,0.6-0.2,0.8,0.2,1v0h-1.7h0.1v0
		c-0.1,0-0.1,0-0.1-0.1l0,0c0.5-0.3,0.6-0.8,0.8-1.3l1.7-4.1c0.1-0.4,0.3-0.8-0.1-0.9v0H172.1L172.1,58z M168.9,54.1v-0.8
		c0.4-0.1,0.7-0.2,1-0.5h0l-0.4,1.3H168.9L168.9,54.1z M168.9,48.7v-1c0,0,0.1,0,0.1,0h0v1.1L168.9,48.7
		C169,48.7,168.9,48.7,168.9,48.7z M168.9,37.3v6.5h-1.1v0c0.5-0.2,0.4-0.9,0.4-1.3v-3.7c0-0.5,0.1-1.2-0.4-1.4v0H168.9L168.9,37.3z
		 M168.9,47.6v1c-0.3-0.3-0.7-0.3-1.1-0.3c-0.4,0-0.7,0-1,0.1v1.8h1.2c0.1,0,0.3,0,0.4-0.1h0v1h0c-0.2-0.3-0.6-0.3-0.9-0.3h-0.7v2.3
		l1.3,0.1c0.3,0,0.5,0,0.8-0.1v0.8h-3.5v0c0.5-0.2,0.4-0.9,0.4-1.3V49c0-0.5,0.1-1.1-0.4-1.4v0h3.1
		C168.6,47.6,168.8,47.7,168.9,47.6L168.9,47.6z M168.9,64.4L168.9,64.4c-0.5-0.2-0.8-0.5-1.1-0.9l-2-2.6l2.2-2.9v0h-1.7v0
		c0.7,0.3,0.1,0.9-0.3,1.4l-1.1,1.5v0.4l2,2.7c0.2,0.2,0.6,0.4,1.1,0.4L168.9,64.4l-0.1,0.1v0C168.8,64.5,168.9,64.4,168.9,64.4
		L168.9,64.4z M165,64.5v-0.1c0.1,0.1,0.1,0.1,0.2,0.1v0H165L165,64.5z M165,58.1V58h0.2v0C165.1,58.1,165,58.1,165,58.1L165,58.1z
		 M165,42v-2.7l1.2,2.9c0.2,0.6,0.4,1.1,0.9,1.4v0h-2v0c0.5-0.2,0.4-0.3,0.1-1L165,42z M165,39.4V42l-0.3-0.8h-1.3v-0.7h1l-1-2.5
		l0,0.1v-0.9h0.7L165,39.4L165,39.4z M165,58v0.1c-0.4,0.3-0.3,0.9-0.3,1.3v3.7c0,0.4-0.1,1,0.3,1.3v0.1h-1.5v-0.2
		c0.3-0.3,0.2-0.8,0.2-1.2v-3.7c0-0.4,0-0.9-0.2-1.2V58H165L165,58z M165,60.9l-0.1,0.2l0.1,0.2V60.9L165,60.9z M163.5,54v-1.3
		l0.3,0.4c0.3,0.4,0.7,0.7,1.2,0.9v0h-0.9C163.8,54.1,163.6,54.1,163.5,54L163.5,54z M163.5,48.5v-0.8h0.6v0L163.5,48.5z
		 M163.5,37.3v0.9l-1,2.4h1v0.7h-1.2l-0.5,1.4c-0.2,0.6-0.2,0.8,0.2,1v0h-1v-1c0.1-0.1,0.1-0.2,0.1-0.4l1.7-4.1
		c0.1-0.4,0.3-0.8-0.2-0.9v0H163.5L163.5,37.3z M163.5,47.6v0.8l-1.6,2.1l1.6,2.2V54c-0.2-0.1-0.4-0.2-0.5-0.3l-2-2.7v-0.4l1.1-1.6
		c0.3-0.5,0.9-1,0.2-1.4v0H163.5L163.5,47.6z M163.5,58v0.2c-0.1-0.1-0.1-0.1-0.2-0.2v0H163.5L163.5,58z M163.5,64.3v0.2h-0.2v0
		C163.3,64.4,163.4,64.4,163.5,64.3L163.5,64.3z M160.9,64.2v-1.4l0.4,0.4c0.4,0.5,1,1,1.6,1.4H162
		C161.5,64.5,161.2,64.4,160.9,64.2L160.9,64.2z M160.9,60.7v-2.2c0.3,0.3,0.5,0.7,0.5,1.1C161.4,60.1,161.2,60.4,160.9,60.7
		L160.9,60.7z M160.9,54.1h0.2v0c-0.1,0-0.1,0-0.2-0.1V54.1L160.9,54.1z M160.9,47.8c0.1,0,0.1-0.1,0.2-0.1v0h-0.2V47.8z
		 M160.9,42.7v1h-0.5v-0.2C160.7,43.2,160.8,43,160.9,42.7L160.9,42.7z M160.9,47.6v0.1c-0.3,0.3-0.3,0.8-0.3,1.3v3.7
		c0,0.4-0.1,1,0.3,1.3v0.1h-0.5v-6.5H160.9L160.9,47.6z M160.9,50.6l-0.1,0.2l0.1,0.2V50.6L160.9,50.6z M160.9,58.6v2.2
		c-0.1,0.1-0.3,0.3-0.5,0.4v-2.9C160.7,58.3,160.8,58.4,160.9,58.6L160.9,58.6z M160.9,62.7v1.4c-0.1-0.1-0.1-0.1-0.1-0.2l-0.4-0.4
		v-1.5L160.9,62.7L160.9,62.7z M160.5,37.8v-0.5h0.4L160.5,37.8z M160.5,37.3v0.5l-2,3.1v1.6c0,0.6,0,0.9,0.5,1.3v0H157v0
		c0.5-0.3,0.4-0.9,0.4-1.3v-1.5l-1.6-2.6c-0.3-0.4-0.5-0.8-1-1h0.9c0.3,0,0.6,0.1,0.7,0.3l1.6,2.6l1.2-1.8c0.2-0.2,0.4-0.7-0.2-1v0
		H160.5L160.5,37.3z M160.5,43.5c-0.1,0.1-0.2,0.2-0.3,0.2v0h0.3V43.5L160.5,43.5z M160.5,47.6v6.5h-1.3v0c0.5-0.2,0.4-0.9,0.4-1.4
		V49c0-0.5,0.1-1.1-0.4-1.4v0H160.5L160.5,47.6z M160.5,58.3v2.9c-0.2,0.1-0.4,0.2-0.6,0.2l0.6,0.8v1.5l-0.8-1.1l-0.9-1.4
		c0.8-0.1,1.7-0.5,1.7-1.4c0-0.7-0.6-1.1-1.2-1.1c-0.2,0-0.5,0-0.7,0.1v4.4c0,0.4-0.1,1.1,0.4,1.3v0h-1.9v0c0.5-0.2,0.4-0.9,0.4-1.3
		v-3.7c0-0.5,0.1-1.2-0.4-1.4v0h2.3C159.8,58,160.2,58.1,160.5,58.3L160.5,58.3z M153.4,62.1h1.3l0.5,1.4c0.3,0.7,0.4,0.8-0.1,1v0h2
		v0c-0.5-0.3-0.7-0.8-1-1.4l-2-5h-0.7V59l0-0.1l1,2.5h-1V62.1L153.4,62.1z M153.4,43.8v-0.8c0.1,0,0.2-0.1,0.3-0.1v-1.4
		c0-0.4,0-0.8-0.3-1v-0.1h1.4v0c-0.1,0.1-0.1,0.3-0.1,0.4v2.3c0,0.1,0,0.3,0.1,0.4C154.3,43.7,153.9,43.8,153.4,43.8L153.4,43.8z
		 M153.4,38v-0.8c0.2,0,0.4,0.1,0.6,0.1v1.1h0C153.8,38.2,153.6,38.1,153.4,38L153.4,38z M157.7,47.7c-0.5-0.1-1-0.2-1.4-0.2
		c-1.2,0-2.5,0.5-2.5,1.7c0,2.1,3.4,1.8,3.4,3.4c0,0.7-0.8,1-1.4,1c-0.8,0-1.6-0.3-2.2-0.8l0.3,1.2c0.6,0.2,1.2,0.3,1.8,0.3
		c1.5,0,2.6-1,2.6-2c0-1.8-3.4-1.8-3.4-3.2c0-0.7,0.7-0.9,1.3-0.9c0.5,0,1.1,0.2,1.5,0.6V47.7z M153.4,37.2V38
		c-0.4-0.1-0.8-0.2-1.1-0.2c-0.7,0-1.4,0.2-1.9,0.7v-0.9c0.6-0.2,1.3-0.4,2.1-0.4C152.8,37.1,153.1,37.1,153.4,37.2L153.4,37.2z
		 M153.4,40.4v0.1c-0.1,0-0.1-0.1-0.1-0.1v0H153.4L153.4,40.4z M153.4,43.1v0.8c-0.3,0-0.7,0.1-1,0.1c-0.8,0-1.4-0.1-2-0.4v-1.1
		c0.5,0.5,1.2,0.8,2,0.8C152.7,43.2,153.1,43.1,153.4,43.1L153.4,43.1z M153.4,58V59l-1,2.4h1v0.7h-1.2l-0.5,1.4
		c-0.2,0.6-0.2,0.8,0.2,1v0h-1.5v-0.2c0.3-0.3,0.5-0.7,0.6-1.2l1.7-4.1c0.1-0.4,0.3-0.8-0.2-0.9v0H153.4L153.4,58z M150.4,60.8
		c0.2-0.3,0.3-0.6,0.3-1c0-0.4-0.1-0.7-0.3-1V60.8L150.4,60.8z M150.4,54.2v-0.8l0.8,0.1c0.7,0.1,1.3-0.1,1.8-0.5h0l-0.4,1.3H150.4
		L150.4,54.2z M150.4,51v-0.7h0.8c0.1,0,0.3,0,0.4-0.1h0v1h0c-0.2-0.3-0.6-0.3-0.9-0.3H150.4L150.4,51z M150.4,48.4v-0.7h1.3
		c0.2,0,0.4,0,0.5,0h0v1.1h0c-0.3-0.4-0.7-0.4-1.2-0.4C150.8,48.4,150.6,48.4,150.4,48.4z M150.4,37.5v0.9c-0.5,0.5-0.8,1.1-0.8,1.9
		c0,0.8,0.3,1.5,0.8,2v1.1c-1.2-0.5-2-1.6-2-3C148.5,39.1,149.2,38.1,150.4,37.5L150.4,37.5z M150.4,47.7v0.7
		c-0.1,0-0.3,0.1-0.4,0.1v1.8h0.4V51H150v2.3l0.4,0.1v0.8h-1.9v0c0.5-0.2,0.4-0.9,0.4-1.3v-3.7c0-0.4,0.1-1.1-0.4-1.4v0H150.4
		L150.4,47.7z M150.4,58.8v2c-0.4,0.5-1.1,0.8-1.8,0.8c-0.2,0-0.5,0-0.7-0.2c0.8-0.1,1.7-0.5,1.7-1.5c0-0.9-0.6-1.2-1.4-1.2
		c-0.2,0-0.4,0-0.7,0.1v4.4c0,0.6,0,1,0.5,1.3v0h-1.9v0c0.5-0.2,0.4-0.9,0.4-1.3v-3.7c0-0.4,0.1-1.2-0.4-1.4v0h2.4
		C149.4,58,150,58.3,150.4,58.8L150.4,58.8z M150.4,64.2c-0.1,0.1-0.2,0.2-0.3,0.2v0h0.3V64.2L150.4,64.2z M144.6,64.5v-0.2
		c0.1,0.1,0.2,0.2,0.3,0.2v0H144.6L144.6,64.5z M144.6,56.6v-0.3h0.3v0.1C144.8,56.4,144.7,56.5,144.6,56.6L144.6,56.6z M144.6,51.3
		v-0.6c0.7-0.2,1.3-0.6,1.3-1.4c0-0.7-0.6-1.1-1.2-1.1c0,0-0.1,0-0.1,0v-0.7h0.3c1.3,0,2,0.7,2,1.6c0,0.9-0.7,1.6-1.6,1.7l1.4,1.8
		c0.4,0.5,1.1,1,1.6,1.4h-0.9c-0.5,0-0.8-0.1-1.1-0.5l-1.2-1.5L144.6,51.3L144.6,51.3z M144.6,41.3v-0.7h1l-1-2.5v-0.8h0.7l2,5
		c0.2,0.6,0.4,1.1,1,1.4v0h-2v0c0.5-0.2,0.4-0.3,0.1-1l-0.5-1.4H144.6z M135.2,41.6l-2.3-5.4c-0.1-0.2-0.2-0.4-0.2-0.6v0h-0.5v2
		l2,4.8c0.3,0.7,0.5,1,1.1,1.5l2.8-7.1l0.7,6c0,0.4-0.1,0.8-0.5,1v0h2.4v0c-0.5-0.4-0.6-0.7-0.7-1.3l-0.8-6.1c0-0.3,0.1-0.6,0.4-0.7
		v-0.1h-2.1v0c0,0.3-0.1,0.5-0.2,0.8L135.2,41.6L135.2,41.6z M144.6,37.3v0.8l-1,2.5h1v0.7h-1.2l-0.5,1.4c-0.2,0.6-0.2,0.8,0.2,1v0
		h-1.8v0c0.6-0.3,0.7-0.8,0.9-1.4l1.6-4.1c0.2-0.4,0.3-0.8-0.1-0.9v0H144.6L144.6,37.3z M144.6,47.6v0.7c-0.2,0-0.4,0-0.6,0.1v4.4
		c0,0.4-0.1,1.2,0.4,1.3v0h-1.9v0c0.5-0.2,0.4-0.9,0.4-1.3V49c0-0.5,0.1-1.1-0.4-1.4v0H144.6L144.6,47.6z M144.6,50.7
		c-0.1,0-0.2,0.1-0.4,0.1l0.4,0.5V50.7L144.6,50.7z M144.6,56.3v0.3c-0.3,0.4-0.2,1-0.2,1.5v4.7c0,0.4,0,1.1,0.2,1.5v0.2h-2v0
		c0.6-0.2,0.5-1.2,0.5-1.7v-4.7c0-0.6,0.1-1.5-0.5-1.7v-0.1H144.6L144.6,56.3z M132.1,64.5v-0.7l0.4,0c0.7,0.1,1.3-0.1,1.8-0.6h0
		l-0.4,1.3H132.1L132.1,64.5z M132.1,61.4v-0.7h0.4c0.1,0,0.3,0,0.4-0.1h0v1.1h0C132.8,61.4,132.4,61.4,132.1,61.4L132.1,61.4z
		 M132.1,58.8V58h0.9c0.2,0,0.4,0,0.5,0h0v1.1h0c-0.3-0.3-0.7-0.4-1.2-0.4C132.3,58.7,132.2,58.8,132.1,58.8L132.1,58.8z
		 M132.1,57.3v-0.6l0.7-0.5l0.5,0.7L132.1,57.3L132.1,57.3z M132.1,54.1V54c0.1,0,0.1,0.1,0.2,0.1v0H132.1L132.1,54.1z M132.1,50.1
		l2.6,3.4c0.2,0.3,0.8,0.5,1.4,0.5h1.1v0c-0.6-0.3-1.1-0.7-1.5-1.1l-2.5-3.3l2.9-3.7v0h-2.3V46c0.8,0.4,0.1,1.1-0.3,1.7l-1.4,1.9
		V50.1L132.1,50.1z M132.1,46.1v-0.2h0.2V46C132.3,46,132.2,46.1,132.1,46.1L132.1,46.1z M139,51h0.7c0.3,0,0.7,0,0.9,0.3h0v-1h0
		c-0.1,0.1-0.3,0.1-0.4,0.1H139v-1.8c0.3-0.1,0.7-0.1,1-0.1c0.5,0,0.8,0.1,1.2,0.4h0v-1.1h0c-0.2,0.1-0.3,0-0.5,0h-3.1v0
		c0.5,0.2,0.4,0.9,0.4,1.4v3.7c0,0.4,0.1,1.2-0.4,1.3v0h4.1l0.4-1.3h0c-0.5,0.4-1.2,0.6-1.8,0.6l-1.2-0.1V51L139,51z M139,58.1
		c-0.5-0.1-1-0.2-1.4-0.2c-1.2,0-2.5,0.5-2.5,1.7c0,2.1,3.4,1.8,3.4,3.4c0,0.7-0.8,1-1.4,1c-0.8,0-1.6-0.3-2.2-0.8l0.3,1.2
		c0.6,0.2,1.2,0.4,1.8,0.4c1.5,0,2.6-1,2.6-2.1c0-1.8-3.4-1.8-3.4-3.1c0-0.7,0.7-0.9,1.3-0.9c0.5,0,1.1,0.2,1.5,0.6V58.1z
		 M132.1,35.5h-1.6v0.1c0.6,0.3,0.4,0.8,0.4,1.1l-0.7,5.2c-0.1,0.7-0.2,1.3-0.7,1.7v0h2v0c-0.6-0.3-0.5-0.8-0.4-1.6l0.7-5.3l0.3,0.7
		V35.5L132.1,35.5z M132.1,45.9v0.2c-0.4,0.3-0.4,1.1-0.4,1.6v4.7c0,0.5-0.1,1.3,0.4,1.6v0.1H130v0c0.6-0.2,0.5-1.1,0.5-1.7v-4.7
		c0-0.6,0.1-1.5-0.5-1.7v-0.1H132.1L132.1,45.9z M132.1,49.6l-0.2,0.2l0.2,0.3V49.6L132.1,49.6z M132.1,56.7v0.6l-1.4,0.4
		L132.1,56.7L132.1,56.7z M132.1,58v0.7c-0.3,0-0.6,0-0.8,0.1v1.8h0.8v0.7c0,0-0.1,0-0.1,0h-0.7v2.3l0.8,0.1v0.7h-2.2v0
		c0.5-0.2,0.4-0.9,0.4-1.3v-3.7c0-0.5,0.1-1.2-0.4-1.4v0H132.1L132.1,58z M119.4,63v-0.6c0.2-0.2,0.5-0.3,0.7-0.5
		c1.2-0.9,2.2-1.9,3.1-3.1c0.4-0.6,0.8-1.2,1.2-1.9c1-2,1.7-4.3,1.7-6.6c-1.4,0.3-1.7,0.2-1.7,1.2l0,4c0,0.5,0.1,1.2-0.7,1.6
		c-1.5,0.2-3,0.7-4.3,1.2v-1.5c1.1-0.4,2.2-0.7,3.3-0.9c0.1,0,0.3-0.1,0.3-0.5v-4.5c0-1.2,0.1-1.1,1.4-1.4c0.5-0.1,0.7-0.3,0.4-0.7
		l-1.1-2.1c-0.4-0.5-1.6-0.9-2.5-0.8c-0.7,0.1-1.3,0.4-1.9,0.7v-0.8c1.7-0.9,3.8-1.4,6.5-1.3c-0.4,0.5-0.9,0.9-1,1.5
		c0,0.1,0.1,0.4,0.1,0.5l1.4,2.5c0.3,0.5,0.5,1.1,0.2,1.3c0,0-0.1,0-0.1,0.1v0.2c-0.1,0.8-0.1,1.6-0.3,2.4c-0.3,1.3-0.7,2.5-1.2,3.7
		c-0.4,0.7-0.7,1.3-1.1,2c-0.9,1.3-1.9,2.4-3,3.4C120.4,62.3,119.9,62.7,119.4,63L119.4,63z M119.4,44.1v-1.7
		c0.1,0.1,0.2,0.1,0.4,0.1c1,0.3,2,0.4,3,0.3h0.9c0.3,0-0.4-0.2-0.7-0.5c-1-1.1-2.1-2.3-3.3-3.5c-0.1,0-0.1-0.1-0.2-0.1v-1.6
		c0.9,0.6,1.7,1.4,2.4,2.2c0.9,1.1,1.7,2.3,2.9,2.9c1,0.5,3.2,0.5,2.6,1.6c-0.3,0.4-0.9,0.4-1.4,0.3c-1.6,0.1-3.2,0.1-4.7,0.2
		C120.5,44.4,119.9,44.3,119.4,44.1z M119.4,37.1v1.6c-1.4-1-2.8-1.7-4.3-2.2c-1.3-0.4-2.6-0.6-3.9-0.5c-0.6,0.1-1.3,0.2-1.8,0.4v-2
		c0.6-0.1,1.2-0.1,1.7-0.1c2.1,0.1,3.8,0.5,5.5,1.2C117.6,36,118.5,36.5,119.4,37.1L119.4,37.1z M119.4,42.5c-0.9-0.3-1.8-1-2.6-1.9
		c-1.6-1.6-3.8-2.5-6.6-2.5l-0.8,0.1v1.6c0.7,0,1.4,0.1,2,0.1c2.2,0.2,3.9,1.7,4.6,2.5c1,0.8,2,1.5,3.4,1.9V42.5L119.4,42.5z
		 M119.4,45.9v0.8c-0.2,0.1-0.4,0.2-0.6,0.4c-0.5,0.2-0.6-0.2-0.5-0.5C118.6,46.4,119,46.1,119.4,45.9L119.4,45.9z M119.4,56.8v1.5
		c-2.9,1.3-5.2,3.4-6.6,6.7c0.5-0.1,0.9-0.1,1.3-0.2c1-0.2,1.9-0.5,2.8-0.9c0.9-0.4,1.7-0.9,2.5-1.4V63c-0.3,0.2-0.6,0.4-0.9,0.6
		c-1.4,0.7-2.8,1.3-4.3,1.6c-1,0.2-2.1,0.3-3.1,0.4c-0.5,0-1.1,0-1.7-0.1V65c0.3,0,0.6,0.1,0.8,0.1c-0.3-0.1-0.6-0.3-0.8-0.4v-0.5
		c0.3,0.2,0.6,0.3,0.9,0.5c-0.3-0.4-0.6-0.8-0.9-1.2v-0.8c0,0,0.1,0.1,0.1,0.1l1.1,1.5v-3.8c-0.4,0.1-0.8,0.2-1.1,0.3c0,0,0,0,0,0
		v-0.5c0.3-0.1,0.7-0.2,1-0.3l0.2,0v-3.8c-0.4,0.1-0.7,0.2-1.1,0.2V56c0.4-0.1,0.8-0.2,1.1-0.2v-2.9c-0.4,0-0.8,0-1.1,0c0,0,0,0,0,0
		v-0.5c0.4,0,0.8,0,1.1-0.1v-2.5h-1.1v-0.5h1.1v-2.5c-0.2,0-0.4,0-0.7,0c-0.1,0-0.3,0-0.5,0v-0.5c0.4,0,0.8,0.1,1.1,0.1v-2.5
		c-0.4,0-0.7,0-1.1-0.1v-1.5c1.5,0,3.1,0,4.5,0.1c1.4,0.2,2.6,0.8,3.4,1.5c-1.2-0.2-2.4-0.2-3.6-0.1c-0.8,0.1-1.7,0.1-2.6,0.1v20.7
		C113,60.5,115.9,58.1,119.4,56.8L119.4,56.8z M109.3,41.9v-1.7c0.6,0,1.1,0,1.7,0c1.7,0.2,3.1,0.9,4.3,2.2
		c-1.2-0.5-2.7-0.5-4.1-0.5C110.6,41.9,110,41.9,109.3,41.9z M109.3,34.5v2c-0.2,0.1-0.4,0.1-0.5,0.2c-0.5,0.2-1.1,0.5-1.6,0.8V37
		c0.5-0.2,0.8-0.4,1.3-0.6c-0.4-0.4-0.8-0.8-1.3-1.2v-0.5C107.9,34.6,108.6,34.5,109.3,34.5L109.3,34.5z M109.3,38.2v1.6
		c-0.7,0-1.4,0-2.2,0v-1.5L109.3,38.2L109.3,38.2z M109.3,40.1v1.7c-0.7,0-1.4,0-2.2-0.1v-1.7C107.9,40.1,108.6,40.1,109.3,40.1
		L109.3,40.1z M109.3,42.3v1.5c-0.2,0-0.4,0-0.6-0.1c-0.5-0.1-1-0.2-1.5-0.4v-1c0.6,0.1,1.3,0.1,1.9,0
		C109.2,42.3,109.3,42.3,109.3,42.3L109.3,42.3z M109.3,46.3v0.5c-0.6-0.1-1.1-0.1-1.7-0.2c-0.1,0-0.3,0-0.4-0.1V46
		c0.6,0.1,1.2,0.2,1.8,0.2C109.1,46.2,109.2,46.2,109.3,46.3L109.3,46.3z M109.3,49.3v0.5h-2.2v-0.5H109.3L109.3,49.3z M109.3,52.4
		v0.5c-0.6,0-1.1,0.1-1.7,0.1c-0.1,0-0.3,0.1-0.5,0.1v-0.5C107.9,52.5,108.6,52.5,109.3,52.4L109.3,52.4z M109.3,56v0.5
		c-0.2,0.1-0.5,0.1-0.7,0.2l-0.7,0.2c-0.2,0.1-0.5,0.2-0.7,0.3v-0.5c0.7-0.2,1.4-0.4,2-0.6C109.3,56,109.3,56,109.3,56L109.3,56z
		 M109.3,60.3v0.5c-0.3,0.1-0.6,0.2-0.9,0.3c0.3,0.5,0.6,1,0.9,1.5v0.8c-0.1-0.2-0.2-0.3-0.3-0.5c-0.4-0.5-0.7-1.1-1-1.6
		c-0.3,0.2-0.5,0.3-0.8,0.5v-0.6c0.2-0.1,0.4-0.2,0.5-0.3c-0.2-0.3-0.4-0.6-0.5-1v-1c0.3,0.6,0.6,1.2,1,1.8
		C108.5,60.6,108.9,60.4,109.3,60.3L109.3,60.3z M109.3,64.1c-0.7-0.4-1.4-0.9-2.2-1.4v0.6c0.7,0.5,1.4,1,2.2,1.4V64.1L109.3,64.1z
		 M109.3,65v0.5c-0.2,0-0.5-0.1-0.8-0.1c-0.5-0.1-0.9-0.2-1.4-0.3v-0.5C107.9,64.9,108.6,65,109.3,65z M107.2,34.7v0.5
		c0,0-0.1-0.1-0.1-0.1c-0.5,0.1-1,0.3-1.5,0.5v-0.5c0.4-0.1,0.7-0.2,1.1-0.3C106.9,34.8,107,34.7,107.2,34.7L107.2,34.7z M107.2,37
		v0.5c-0.4,0.2-0.8,0.5-1.1,0.7l1.1,0v1.5c-0.3,0-0.7,0-1,0c-0.2,0-0.4,0-0.7,0.1V38C106.1,37.7,106.6,37.3,107.2,37
		C107.2,37,107.2,37,107.2,37L107.2,37z M107.2,40.1v1.7c-0.6,0-1.1-0.1-1.6-0.2v-1.4c0.5,0,1-0.1,1.5-0.1
		C107.1,40.1,107.1,40.1,107.2,40.1L107.2,40.1z M107.2,42.3v1c0,0,0,0-0.1,0c-0.4,0.6-0.7,1.3-1,2c-0.1,0.2-0.1,0.4-0.2,0.5
		c0.4,0.1,0.9,0.2,1.3,0.2v0.5c-0.5-0.1-1-0.1-1.5-0.2c-0.1,0.2-0.1,0.4-0.2,0.5v-1.4c0.3-0.7,0.7-1.4,1.1-2.2l0.1-0.2
		c-0.4-0.3-0.8-0.6-1.2-1C106.1,42.2,106.6,42.2,107.2,42.3L107.2,42.3z M107.2,49.3v0.5h-1.6v-0.5H107.2L107.2,49.3z M107.2,52.6
		v0.5c-0.5,0.1-1.1,0.2-1.6,0.3v-0.5c0.1,0,0.2-0.1,0.3-0.1C106.3,52.7,106.8,52.6,107.2,52.6L107.2,52.6z M107.2,56.6v0.5
		c-0.2,0.1-0.4,0.1-0.6,0.2c0,0-0.1,0-0.1,0c0.2,0.6,0.5,1.1,0.7,1.6v1c-0.4-0.8-0.8-1.6-1.1-2.5c-0.2,0.1-0.3,0.2-0.5,0.2v-0.5
		c0.1,0,0.2-0.1,0.3-0.1c-0.1-0.2-0.2-0.5-0.3-0.8v-1.6c0.2,0.7,0.4,1.3,0.6,2c0,0.1,0.1,0.1,0.1,0.2
		C106.6,56.8,106.9,56.7,107.2,56.6L107.2,56.6z M107.2,61.3v0.6c-0.2,0.1-0.4,0.3-0.5,0.4c0.2,0.2,0.4,0.3,0.5,0.5v0.6
		c-0.3-0.2-0.6-0.5-0.9-0.7l0,0c-0.2,0.2-0.5,0.4-0.7,0.7v-0.7c0.1-0.1,0.2-0.2,0.4-0.4c-0.1-0.1-0.2-0.2-0.4-0.3v-0.6
		c0.2,0.2,0.5,0.4,0.7,0.6C106.6,61.7,106.9,61.5,107.2,61.3L107.2,61.3z M107.2,64.7v0.5c-0.5-0.1-1.1-0.3-1.6-0.5v-0.5
		C106.1,64.4,106.6,64.6,107.2,64.7C107.2,64.7,107.2,64.7,107.2,64.7z M105.6,35.1v0.5c-0.1,0.1-0.3,0.1-0.4,0.2v-0.5
		C105.3,35.2,105.4,35.2,105.6,35.1L105.6,35.1z M105.6,38v1.8c-0.1,0-0.3,0-0.4,0v-1.5l0.1,0C105.3,38.2,105.4,38.1,105.6,38
		L105.6,38z M105.6,40.2v1.4c-0.1,0-0.2,0-0.3-0.1c-0.1,0-0.1,0-0.2,0v-1.3C105.3,40.2,105.4,40.2,105.6,40.2L105.6,40.2z
		 M105.6,45.4v1.4c-0.1,0.3-0.2,0.5-0.2,0.8c-0.1,0.4-0.1,0.7-0.2,1v-2.2c0.1-0.1,0.1-0.2,0.1-0.3c0,0-0.1,0-0.1,0v-0.5
		c0.1,0,0.2,0.1,0.3,0.1C105.5,45.6,105.5,45.5,105.6,45.4L105.6,45.4z M105.6,49.3v0.5h-0.4v-0.5H105.6L105.6,49.3z M105.6,52.9
		v0.5c-0.1,0-0.2,0.1-0.3,0.1c0.1,0.5,0.2,0.9,0.3,1.4v1.6c-0.2-0.4-0.3-0.8-0.4-1.3v-2.1C105.3,52.9,105.4,52.9,105.6,52.9
		L105.6,52.9z M105.6,57.2v0.5c-0.1,0.1-0.3,0.1-0.4,0.2v-0.5C105.3,57.4,105.4,57.3,105.6,57.2L105.6,57.2z M105.6,61.3v0.6
		c-0.1-0.1-0.3-0.3-0.4-0.4v-0.7C105.3,61,105.4,61.1,105.6,61.3L105.6,61.3z M105.6,62.6v0.7c-0.1,0.1-0.3,0.3-0.4,0.5V63
		c0.1-0.1,0.1-0.1,0.1-0.2C105.4,62.7,105.4,62.7,105.6,62.6L105.6,62.6z M105.6,64.2v0.5c-0.1-0.1-0.3-0.1-0.4-0.2v-0.5
		C105.3,64.1,105.4,64.2,105.6,64.2z M105.1,35.3v0.5c-0.1,0.1-0.3,0.1-0.5,0.2v-0.5C104.8,35.4,105,35.3,105.1,35.3L105.1,35.3z
		 M105.1,38.3v1.5c-0.1,0-0.3,0-0.5,0v-1.5H105.1L105.1,38.3z M105.1,40.2v1.3c-0.1-0.1-0.3-0.1-0.5-0.2v-1.1
		C104.8,40.2,105,40.2,105.1,40.2L105.1,40.2z M105.1,45.6v0.5c-0.1-0.1-0.3-0.1-0.5-0.1v-0.5C104.8,45.6,105,45.6,105.1,45.6
		L105.1,45.6z M105.1,46.5v2.2c0,0.2-0.1,0.5-0.1,0.7h0.1v0.5H105c-0.1,0.4-0.1,0.9-0.1,1.4c0.1,0.6,0.1,1.1,0.2,1.7V55
		c-0.1-0.4-0.2-0.8-0.3-1.3c0-0.1,0-0.2-0.1-0.2c0,0-0.1,0-0.1,0V53v-4.7c0.1-0.5,0.2-0.9,0.3-1.4C105,46.8,105.1,46.6,105.1,46.5
		L105.1,46.5z M105.1,57.4V58c-0.1,0.1-0.3,0.1-0.5,0.2v-0.5c0,0,0,0,0,0C104.8,57.6,105,57.5,105.1,57.4L105.1,57.4z M105.1,60.8
		v0.7c-0.1-0.2-0.3-0.3-0.5-0.5v-0.7C104.8,60.5,105,60.7,105.1,60.8L105.1,60.8z M105.1,63v0.7c-0.1,0.1-0.1,0.2-0.2,0.2
		c0,0,0.1,0,0.1,0c0.1,0,0.1,0.1,0.1,0.1v0.5c-0.1,0-0.2-0.1-0.3-0.1c-0.1,0-0.1,0-0.2-0.1v-0.9C104.8,63.3,105,63.2,105.1,63z
		 M104.7,35.5v0.5c-0.4,0.2-0.8,0.4-1.3,0.7c-0.6,0.4-1.2,0.8-1.8,1.2v-0.6c0.5-0.4,1-0.7,1.6-1C103.7,35.9,104.2,35.7,104.7,35.5
		L104.7,35.5z M104.7,38.3v1.5c-0.7,0-1.3,0-2-0.1c-0.4,0-0.7-0.1-1.1-0.2v-1.2L104.7,38.3L104.7,38.3z M104.7,40.2v1.1
		c-0.5-0.2-1-0.4-1.4-0.7l0,0c-0.7,0.8-1.1,1.4-1.6,2.3V42c0.2-0.3,0.4-0.6,0.6-0.9c0.2-0.2,0.4-0.5,0.6-0.7
		c-0.2-0.1-0.4-0.3-0.6-0.4C103,40.2,103.8,40.2,104.7,40.2L104.7,40.2z M104.7,45.5v0.5c-0.6-0.2-1.2-0.3-1.8-0.5
		c-0.4-0.1-0.8-0.2-1.3-0.4v-0.5c0.6,0.2,1.2,0.4,1.8,0.5C103.8,45.3,104.2,45.4,104.7,45.5L104.7,45.5z M104.7,48.3V53
		c-0.1-0.4-0.1-0.8-0.2-1.2c0-0.7-0.1-1.4,0-2h-2.9v-0.5h2.9C104.5,49,104.6,48.6,104.7,48.3L104.7,48.3z M104.7,53
		c-1,0.2-2.1,0.5-3.1,0.9v0.5c1-0.4,2-0.7,3.1-0.9V53L104.7,53z M104.7,57.7v0.5c-0.4,0.2-0.8,0.5-1.3,0.7c0.4,0.5,0.8,1,1.3,1.5
		v0.7c-0.4-0.4-0.8-0.8-1.2-1.3c-0.2-0.2-0.3-0.4-0.5-0.6c-0.4,0.2-0.8,0.5-1.2,0.8c-0.1,0.1-0.1,0.1-0.2,0.2v-0.6
		c0.4-0.3,0.7-0.5,1.1-0.8c-0.2-0.2-0.4-0.5-0.6-0.8c-0.2-0.3-0.3-0.5-0.5-0.8V56c0.3,0.6,0.6,1.1,0.9,1.7c0.2,0.3,0.4,0.5,0.6,0.8
		C103.6,58.2,104.1,57.9,104.7,57.7L104.7,57.7z M104.7,63.5v0.9c-1.1-0.5-2.1-1.1-3.1-1.7v-0.6c0.9,0.7,1.9,1.2,2.9,1.7
		C104.5,63.7,104.6,63.6,104.7,63.5z M101.6,37.2v0.6c-0.2,0.2-0.5,0.4-0.7,0.5h0.7v1.2c-0.5-0.1-1-0.3-1.4-0.5c0,0-0.1,0.1-0.1,0.1
		v-0.7C100.6,37.9,101.1,37.6,101.6,37.2L101.6,37.2z M101.6,42v0.9c0,0.1-0.1,0.1-0.1,0.1c-0.2,0.3-0.3,0.6-0.4,0.8
		c-0.1,0.2-0.1,0.3-0.2,0.5c0.2,0.1,0.5,0.2,0.7,0.3v0.5c-0.2-0.1-0.3-0.1-0.5-0.2c-0.1-0.1-0.2-0.1-0.4-0.2
		c-0.2,0.8-0.5,1.5-0.6,2.3v-2.1c0.1-0.1,0.1-0.3,0.1-0.4c0,0-0.1,0-0.1,0v-0.5c0.1,0,0.2,0.1,0.3,0.1c0.1-0.2,0.1-0.4,0.2-0.5
		C100.9,43,101.2,42.6,101.6,42L101.6,42z M101.6,49.3v0.5h-1.5v-0.5H101.6L101.6,49.3z M101.6,53.9v0.5c-0.2,0.1-0.4,0.1-0.7,0.2
		c0.2,0.5,0.4,1,0.7,1.4v1.1c0,0,0-0.1-0.1-0.1c-0.2-0.3-0.3-0.7-0.5-1c-0.1-0.3-0.3-0.7-0.4-1c-0.1-0.1-0.1-0.2-0.2-0.4
		c-0.1,0.1-0.2,0.1-0.4,0.2v-0.5c0.1,0,0.1-0.1,0.2-0.1c0,0,0-0.1-0.1-0.1c0-0.2-0.1-0.3-0.1-0.5v-1.9c0,0.1,0.1,0.2,0.1,0.3
		c0.1,0.3,0.2,0.6,0.2,1c0.1,0.4,0.2,0.7,0.4,1c0.1,0,0.2-0.1,0.4-0.1C101.3,54,101.4,53.9,101.6,53.9L101.6,53.9z M101.6,59.6v0.6
		c-0.4,0.3-0.8,0.6-1.1,0.9c0.2,0.2,0.5,0.4,0.7,0.7c0.1,0.1,0.2,0.2,0.4,0.3v0.6c-0.2-0.2-0.4-0.3-0.7-0.5
		c-0.3-0.2-0.5-0.5-0.8-0.7v-0.7c0.3-0.2,0.5-0.5,0.8-0.7C101.1,59.9,101.4,59.8,101.6,59.6z M100.1,38.4v0.7c-0.5,0.5-1,1-1.4,1.6
		v-0.7c0.4-0.4,0.7-0.8,1.1-1.2c-0.1-0.1-0.3-0.2-0.4-0.3L100.1,38.4L100.1,38.4z M100.1,44.1v0.5c-0.5-0.2-1-0.4-1.4-0.6v-0.5
		C99.1,43.7,99.6,43.9,100.1,44.1L100.1,44.1z M100.1,45.1v2.1c-0.1,0.4-0.1,0.8-0.2,1.3c0,0.3,0,0.6,0,0.9c0,0,0,0,0,0h0.2v0.5
		h-0.2c0,0.1,0,0.3,0,0.4c0.1,0.3,0.1,0.7,0.1,1c0,0.2,0.1,0.4,0.1,0.6v1.9c0-0.2-0.1-0.3-0.2-0.5c-0.1-0.3-0.2-0.7-0.2-1
		c-0.1-0.3-0.1-0.7-0.2-1c0-0.3-0.1-0.7-0.1-1c0-0.2,0-0.3,0-0.5h-0.8v-0.5h0.7c0,0,0,0,0,0c0-0.3,0-0.7,0.1-1
		c0.1-0.7,0.2-1.3,0.3-1.9c0.1-0.3,0.2-0.6,0.2-1C100,45.4,100,45.2,100.1,45.1L100.1,45.1z M100.1,54.4V55c-0.5,0.2-1,0.4-1.4,0.6
		v-0.5C99.1,54.8,99.6,54.6,100.1,54.4L100.1,54.4z M100.1,60.8v0.7c-0.5-0.4-0.9-0.9-1.4-1.4c0,0-0.1-0.1-0.1-0.1v-0.8
		c0.3,0.4,0.6,0.8,1,1.1C99.7,60.4,99.9,60.6,100.1,60.8z M98.6,39.9v0.7c-0.2,0.2-0.4,0.5-0.5,0.7c-0.3,0.5-0.6,0.9-0.9,1.4
		c0.3,0.2,0.7,0.3,1,0.5c0.1,0.1,0.2,0.1,0.4,0.2V44c-0.5-0.2-1.1-0.5-1.6-0.8c-0.3,0.6-0.5,1.2-0.8,1.9c-0.4,1.4-0.7,2.8-0.8,4.2
		h3.2v0.5h-3.2c0,0.6,0.1,1.2,0.1,1.9l0.1,0.8c0.1,0.7,0.3,1.4,0.5,2.2c0.1,0.4,0.3,0.9,0.5,1.3c0.3-0.1,0.6-0.3,0.9-0.4
		c0.3-0.2,0.7-0.3,1-0.5v0.5c-0.5,0.3-1.1,0.5-1.7,0.8v0c0.2,0.5,0.5,1,0.8,1.5c0.3,0.4,0.5,0.8,0.8,1.2v0.8c-0.8-1-1.4-1.9-2-3.1
		C96.2,56,95.8,55,95.5,54c-0.2-1-0.4-2-0.5-3.1c0-1,0-1.9,0.1-2.9c0.1-1.1,0.4-2.1,0.7-3.1c0.5-1.4,1.1-2.7,2-3.9
		C98,40.7,98.3,40.3,98.6,39.9z"/>
</g>
</svg>
