<?xml version="1.0" encoding="utf-8"?>
<!-- Generator: Adobe Illustrator 24.2.3, SVG Export Plug-In . SVG Version: 6.00 Build 0)  -->
<svg version="1.1" id="Layer_1" xmlns="http://www.w3.org/2000/svg" xmlns:xlink="http://www.w3.org/1999/xlink" x="0px" y="0px"
	 viewBox="0 0 300 100" style="enable-background:new 0 0 300 100;" xml:space="preserve">
<style type="text/css">
	.st0{fill:#C6C6C6;}
</style>
<g>
	<path class="st0" d="M131,53.2c-0.5,0-1.1-0.2-1.5,0.3c-0.1,0.1-0.2,0.4-0.1,0.6c0.1,0.2,0.3,0.3,0.5,0.3c0.4-0.1,1,0,1.4-0.3
		c0.1-0.1,0.2-0.4,0.1-0.5C131.3,53.3,131.1,53.2,131,53.2z"/>
	<path class="st0" d="M186.5,48.8c-0.7-0.1-1.8-0.2-2.4,0.3c0,0.1,0,0.5,0.1,0.5c0.7,0.2,1.5,0,2.4,0c0.1,0,0.3-0.3,0.3-0.6
		C186.9,49,186.7,48.9,186.5,48.8z"/>
	<path class="st0" d="M108.9,47.9c-0.6-0.3-1.5-0.5-2.1,0c-0.2,0.6,0,1.3-0.1,1.9l0.1,0.2c0.1,0.1,0.3,0.1,0.5,0.1
		c0.7-0.2,1.7,0,2-0.8c0-0.3,0.1-0.6-0.1-0.9L108.9,47.9z"/>
	<path class="st0" d="M196,40.3h-91.9c-5,0-9,4.4-9,9.9s4,9.9,9,9.9h92c5,0,9-4.4,9-9.9C205.1,44.8,201,40.3,196,40.3z M115.3,49.1
		c0,1.4-0.5,2.7-1.6,3.5c-0.7,0.6-1.5,1.4-2.5,1.6c-1.1,0.5-2.6,0.4-3.8,0.5c-0.2,0.1-0.4,0.3-0.5,0.5c-0.3,0.9,0.5,2-0.5,2.6
		c-1,0.1-2.1,0.1-3.1,0.1c-0.8-0.1-2,0.3-2.5-0.5c-0.2-0.6,0-1.2,0-1.8c0.1-2.2,0.2-4.5,0.2-6.9c-0.1-1.7,0-3.4-0.2-5
		c0-0.4,0.1-0.9,0.6-1.1c0.7-0.2,1.5,0,2.2-0.1c2.3,0,5-0.3,7.1,0.5l1.1,0.4c1,0.5,2,1.4,2.8,2.4C115.3,46.7,115.5,47.8,115.3,49.1z
		 M121.6,51.6c0,0.9,0.1,1.8,0,2.8c0,1.1,0.4,2.4-0.2,3.3c-0.3,0.2-0.6,0.3-0.9,0.3c-1.3-0.3-2.6,0.3-3.7-0.1
		c-0.3-0.1-0.5-0.3-0.6-0.6c-0.1-0.8,0.1-2,0.1-2.8c-0.1-0.8,0-1.8-0.1-2.7c0.2-1.8-0.2-3.6,0-5.4c0.1-0.3,0.3-0.5,0.5-0.6
		c0.9-0.3,1.9-0.1,2.9-0.1c0.5,0,1-0.1,1.4,0.2c0.1,0.2,0.1,0.5,0.3,0.6c0.3-0.1,0.5-0.4,0.7-0.6c0.8-0.5,1.9-0.3,2.8-0.3
		c0.2,0.1,0.5,0.3,0.5,0.5c0.3,0.7,0,1.5,0.1,2.3c-0.1,0.9,0.2,2-0.8,2.6C123.4,51.2,121.7,49.9,121.6,51.6z M136.9,57
		c0,0.2-0.1,0.5-0.3,0.6l-0.4,0.2c-1.2,0-2.5,0-3.6,0c-0.2,0-0.4-0.1-0.5-0.4c0-0.1,0-0.3-0.1-0.3c-0.9,0.6-2,1-3.3,0.9
		c-0.9,0-1.7-0.4-2.6-0.6c-1.2-0.7-2.1-2-2.1-3.4c0-1.4,0.6-2.5,1.5-3.4c0.6-0.5,1.4-0.5,2.2-0.8c1.1-0.2,2.4-0.1,3.5,0.1
		c0.1,0,0.3,0,0.3-0.2c0-0.2-0.3-0.5-0.5-0.6c-0.6-0.1-1.3-0.2-2-0.2c-0.8,0.1-1.6,0.2-2.4,0.4c-0.3,0-0.6-0.1-0.8-0.4
		c-0.3-0.7-0.1-1.7-0.2-2.5c0-0.2,0.1-0.4,0.3-0.5c0.5-0.3,1-0.3,1.6-0.4c1.2-0.1,2.5-0.1,3.7-0.1c0.9,0,1.8,0.2,2.6,0.3
		c1.3,0.5,2.8,1.5,3,3c0.1,1.1,0.1,2.2,0.1,3.4C137.1,53.6,136.7,55.2,136.9,57z M150.9,57.4c0,0-0.1,0.1-0.1,0.2
		c-0.2,0.1-0.4,0.2-0.6,0.3c-1.2,0-2.6-0.1-3.7,0c-1.1,0.1-1.4-1.2-2-1.8c-0.1-0.3-0.3-0.7-0.7-1c-0.1,0-0.1,0-0.2,0
		c0,0,0,0.1-0.1,0.1c-0.2,0.7,0.2,1.7-0.3,2.3c-0.1,0.1-0.2,0.1-0.3,0.2c-0.6,0.2-1.3,0-2,0c-0.8,0-2.1,0.4-2.7-0.5
		c-0.2-0.7,0-1.5-0.1-2.2c0-1.5-0.1-2.3,0-3.8c0.1-1.2-0.1-2.4-0.1-3.6c0.2-1.1,0.1-2.4,0-3.5c0.1-0.4-0.1-1.1,0.2-1.5
		c0-0.1,0.1-0.1,0.3-0.2l0.6-0.1l2.4,0c0.6-0.1,1.4-0.1,1.8,0.3c0.5,0.5,0.2,0.9,0.3,1.6c-0.2,0.9,0.1,1.4,0,2.3
		c0,0.6-0.1,1.2,0.1,1.8c0.1,0.1,0.2,0.2,0.3,0.1c0.1,0,0.2-0.1,0.3-0.2c0.2-0.3,0.3-0.7,0.5-1.1c0.1-0.6,0.1-1.3,0.6-1.8
		c0,0,0.1-0.1,0.2-0.2c1-0.1,2.2-0.1,3.3-0.1c0.5,0,1.3-0.1,1.6,0.6c0.2,0.5-0.1,0.9-0.1,1.4c-0.4,1.4-0.8,2.8-1.9,3.9
		c-0.3,0.7,0.4,1.3,0.8,1.9c0.5,0.7,0.7,1.7,1.2,2.4C150.8,56.1,151.4,56.8,150.9,57.4z M159.2,49.3c0,0-0.1,0.1-0.1,0.1
		c-0.3,0.3-0.8,0.2-1.2,0.2c0,0,0,0,0,0c-0.3,0.2-0.4,0.4-0.4,0.7c0,0.7,0,1.9,0.1,2.8c0.1,0.8,1,0.1,1.4,0.6c0,0,0.1,0.1,0.1,0.2
		c0.2,0.2,0.2,0.5,0.2,0.9c0,0.7,0,1.2,0.1,1.9c-0.1,0.3-0.1,0.6-0.4,0.9l0,0c0,0,0,0,0,0c-0.8,0.5-2,0.1-3.6,0.3
		c-1.3,0.1-1-0.1-1.8-0.1c-0.5-0.2-1.1-0.6-1.4-1.2c-0.3-1,0-2.4-0.1-3.5c-0.2-1.2,0.2-2.1-0.1-3.3c-0.1-0.3-0.6-0.2-0.8-0.6
		l-0.1-0.6l0-2.7c0-0.2,0.1-0.3,0.3-0.4c0.3-0.3,0.9-0.4,1.3-0.7c0.4-0.3,0.9-0.6,1.3-1c0.2-0.2,0.4-0.4,0.5-0.7
		c0.1-0.1,0.1-0.2,0.2-0.3c0,0,0.1-0.1,0.3-0.1c0.6-0.1,1.4-0.1,2,0l0.3,0.3c0.6,0.7,0,1.7,0.4,2.5l0.1,0.1c0.4,0.1,0.9-0.1,1.3,0.2
		c0.2,0.3,0.2,0.7,0.2,1.1c0,0,0,0,0,0C159.3,47.4,159.5,48.5,159.2,49.3z M160.2,42.8c0.2-0.6,1.4-0.3,2-0.3c1,0,2-0.1,3,0
		c0.4,0.2,0.5,0.6,0.5,1.1c0,0.3,0,0.6,0,0.9c-0.1,0.2-0.1,0.4-0.4,0.5c-0.8,0.1-1.7,0-2.5,0c-0.6,0-1.2,0.1-1.8,0.1
		c-0.3,0-0.6-0.1-0.7-0.4c0-0.3-0.1-0.6-0.1-0.9C160,43.3,160.1,43,160.2,42.8z M165.6,53.9c0,0.7-0.1,1.4,0,2.2
		c0,0.5,0.1,1-0.3,1.4c-0.6,0.8-1.7,0.3-2.6,0.4c-0.7,0.1-1.6,0.2-2.2-0.1c-0.8-0.8-0.3-2-0.4-3.1c-0.1-1.6,0.2-3.3,0-4.9
		c-0.1-1.4,0.1-2.2,0-3.5c0-0.2,0.2-0.4,0.4-0.6c0.7-0.3,1.4-0.1,2.2-0.1c0.8,0.1,1.6-0.3,2.4,0l0.3,0.3c0.4,1,0.1,1.9,0.1,3
		c0,0.7,0.2,1.3,0.1,2.1C165.7,51.9,165.5,53,165.6,53.9z M179.7,57.4c0,0-0.1,0.1-0.1,0.2c-0.2,0.1-0.4,0.2-0.6,0.3
		c-1.2,0-2.6-0.1-3.7,0c-1.1,0.1-1.4-1.2-2-1.8c-0.1-0.3-0.3-0.7-0.7-1c-0.1,0-0.1,0-0.2,0s0,0.1-0.1,0.1c-0.2,0.7,0.2,1.7-0.3,2.3
		c-0.1,0.1-0.2,0.1-0.3,0.2c-0.6,0.2-1.3,0-2,0c-0.8,0-2.1,0.4-2.7-0.5c-0.2-0.7,0-1.5-0.1-2.2c0-1.5-0.1-2.3,0-3.8
		c0.1-1.2-0.1-2.4-0.1-3.6c0.2-1.1,0.1-2.4,0-3.5c0.1-0.4-0.1-1.1,0.2-1.5c0-0.1,0.1-0.1,0.3-0.2l0.6-0.1l2.4,0
		c0.6-0.1,1.4-0.1,1.8,0.3c0.5,0.5,0.2,0.9,0.3,1.6c-0.2,0.9,0.1,1.4,0,2.3c0,0.6-0.1,1.2,0.1,1.8c0.1,0.1,0.2,0.2,0.3,0.1
		c0.1,0,0.2-0.1,0.3-0.2c0.2-0.3,0.3-0.7,0.5-1.1c0.1-0.6,0.1-1.3,0.6-1.8c0,0,0.1-0.1,0.2-0.2c1-0.1,2.2-0.1,3.3-0.1
		c0.5,0,1.3-0.1,1.6,0.6c0.2,0.5-0.1,0.9-0.1,1.4c-0.4,1.4-0.8,2.8-1.9,3.9c-0.3,0.7,0.4,1.3,0.8,1.9c0.2,0.2,0.3,0.5,0.4,0.9
		c0.2,0.5,0.4,1.1,0.8,1.6c0.1,0.2,0.3,0.4,0.4,0.6C179.8,56.7,179.9,57.1,179.7,57.4z M191.4,52.7c-0.4,0.3-1.1,0.1-1.6,0.2
		c-1.7,0.2-3.4-0.1-5.2,0.1c-0.1,0-0.2,0.1-0.2,0.2c-0.1,0.3,0.1,0.4,0.3,0.5c0.8,0.3,1.8,0.1,2.8,0.3l2.2,0c0.4-0.1,1-0.3,1.3,0
		c0.6,0.5,0.1,1.3,0.2,2c0,0.5,0.2,1.2-0.1,1.6c-0.5,0.4-1.2,0.4-1.9,0.5c-1.5,0-3,0.2-4.4-0.1c-2-0.4-4-1.2-5.1-3.1
		c-1-1.5-1.2-3.8-0.6-5.6c0.3-1.4,1.3-2.7,2.5-3.4c0.8-0.2,1.5-0.8,2.4-0.8c1.5-0.2,3.1,0,4.4,0.4c1.7,0.7,3.3,2.5,3.4,4.3
		C191.9,50.8,192.3,52,191.4,52.7z M201.4,50.6c-1,0.6-2.8-0.8-3.1,0.8c0,1,0.1,2.1,0,3.1c0,1,0.6,2.5-0.5,3.3c-1,0.3-2-0.1-3.1,0.1
		c-0.6,0.1-1.5,0.1-2-0.3c-0.3-0.3-0.2-0.7-0.2-1c0.2-1.7,0-3.5,0-5.2c0-0.5,0.1-1.2,0-1.8c0-0.8-0.1-1.4-0.1-2.2
		c0-0.6,0-1.4,0.5-1.7c0.8-0.3,1.9,0,2.8-0.1c0.4-0.1,1-0.1,1.4,0.1c0.2,0.2,0.2,0.5,0.4,0.7c0.3-0.1,0.5-0.5,0.8-0.6
		c0.6-0.4,1.4-0.3,2.1-0.4c0.5-0.1,1,0.2,1.3,0.6c0.2,0.9,0,2,0.1,2.9C202.1,49.5,202.1,50.2,201.4,50.6z"/>
</g>
</svg>
