<?xml version="1.0" encoding="utf-8"?>
<!-- Generator: Adobe Illustrator 24.2.3, SVG Export Plug-In . SVG Version: 6.00 Build 0)  -->
<svg version="1.1" id="Layer_1" xmlns="http://www.w3.org/2000/svg" xmlns:xlink="http://www.w3.org/1999/xlink" x="0px" y="0px"
	 viewBox="0 0 300 100" style="enable-background:new 0 0 300 100;" xml:space="preserve">
<style type="text/css">
	.st0{fill:#C6C6C6;}
</style>
<g>
	<path class="st0" d="M202.3,47.3c-0.9,4.1-2.3,10.2-2.3,10.2h-5.4c0,0-1.3-6-2.3-10.2c-0.2-1-0.9-3.6-1.1-4.5
		c-0.1-0.4,0.4-0.6,0.6-0.2c0.3,0.5,0.8,1.6,1.3,2.7c0.6,1.2,1.2,2.4,1.7,3.4c0.1,0.1,0.1,0.1,0.1,0.1c0,0,0,0,0-0.2
		c0,0,0-1.6,0-3.3c0-2-0.1-4-0.1-4.3c0-0.4,0.5-0.4,0.6-0.1c0.2,0.9,0.5,2.6,0.9,4.3c0.3,1.4,0.6,2.7,0.8,3.3c0,0.1,0.1,0.1,0.1,0.1
		c0,0,0.1,0,0.1-0.1c0.1-0.5,0.4-1.8,0.8-3.3c0.4-1.7,0.7-3.4,0.9-4.3c0.1-0.4,0.6-0.3,0.6,0.1c-0.1,2.5-0.1,5-0.1,7.5
		c0,0.1,0,0.2,0,0.2c0,0,0.1,0,0.1-0.1c0.5-1,1.2-2.2,1.7-3.4c0.5-1.1,1.1-2.2,1.3-2.7c0.2-0.3,0.7-0.1,0.6,0.2
		C203.1,43.7,202.5,46.3,202.3,47.3"/>
	<path class="st0" d="M191.4,39.8c0,0.5-0.4,0.9-0.9,0.9c-0.5,0-0.9-0.4-0.9-0.9c0-0.5,0.4-0.9,0.9-0.9
		C191,38.9,191.4,39.3,191.4,39.8"/>
	<path class="st0" d="M195.7,38c0,0.5-0.4,0.9-0.9,0.9c-0.5,0-0.9-0.4-0.9-0.9c0-0.5,0.4-0.9,0.9-0.9
		C195.3,37.1,195.7,37.5,195.7,38"/>
	<path class="st0" d="M200.7,38c0,0.5-0.4,0.9-0.9,0.9c-0.5,0-0.9-0.4-0.9-0.9c0-0.5,0.4-0.9,0.9-0.9
		C200.3,37.1,200.7,37.5,200.7,38"/>
	<path class="st0" d="M205,39.8c0,0.5-0.4,0.9-0.9,0.9c-0.5,0-0.9-0.4-0.9-0.9c0-0.5,0.4-0.9,0.9-0.9C204.6,38.9,205,39.3,205,39.8"
		/>
	<path class="st0" d="M181.7,57.5v-8.2c0-1.3-0.1-2-0.5-2.6c-0.4-0.6-1.1-1-1.9-1c-2,0-2.9,1.1-2.9,2.9v8.8h-2.9V39.8h2.9v4.7
		c0.7-0.7,1.9-1.1,2.9-1.1c4,0,5.2,2.7,5.2,5.6v8.5"/>
	<path class="st0" d="M162.3,46.3c0-0.5,0-0.5,0.2-0.5c0.3,0,0.8,0,1.2,0c0.2,0,0.3,0,0.5,0c2.4,0,3.8,2.2,3.8,4.7
		c0,2.3-0.7,4.4-3.8,4.6c-0.1,0-0.2,0-0.3,0c-0.4,0-0.9,0-1.5-0.1c-0.2,0-0.2,0-0.2-0.2 M170.7,50.4c0-2.1-0.8-4.2-1.9-5.3
		c-0.5-0.5-1.7-1.7-4.5-1.7c0,0-2.2,0-3.1,0.1c-1.1,0.1-1.6,0.5-1.6,1.7v17.7h2.7v-5.3c0.2,0,0.8,0.1,1.7,0.1c2.4,0,3.8-0.8,5-2
		C170.5,54.2,170.7,51.9,170.7,50.4"/>
	<path class="st0" d="M153.6,57.5v-8.2c0-1.3-0.1-2-0.5-2.6c-0.4-0.6-1.1-1-1.9-1c-2,0-2.3,1-2.3,2.9v8.8H146v-8.8
		c0-1.9-0.3-2.9-2.3-2.9c-0.8,0-1.5,0.3-1.8,0.9c-0.4,0.6-0.5,1.4-0.5,2.7v8.1h-2.9v-8c0-2.7,0.4-3.7,1.6-4.8
		c0.9-0.8,2.2-1.2,3.7-1.2c1.4,0,2.7,0.6,3.8,1.8c1-1.1,2.4-1.8,3.8-1.8c4,0,5.2,2.7,5.2,5.6v8.5"/>
	<path class="st0" d="M134.1,56.1c-1,1.1-2.5,1.7-4.3,1.7c-1.7,0-3.3-0.6-4.4-1.7c-1-1.1-1.4-2.4-1.4-4.3v-8.1h2.9v7.6
		c0,1.9,0.2,3.9,2.9,3.9c2.7,0,2.9-2,2.9-3.9v-7.6h2.9v8.1C135.5,53.6,135.1,55,134.1,56.1"/>
	<rect x="117.7" y="43.6" class="st0" width="2.9" height="13.9"/>
	<path class="st0" d="M120.8,40c0,0.9-0.7,1.6-1.6,1.6c-0.9,0-1.6-0.7-1.6-1.6s0.7-1.6,1.6-1.6C120,38.3,120.8,39.1,120.8,40"/>
	<path class="st0" d="M114.2,45.9c-2.3,0.1-2.6,1.8-2.6,3.5v8.1h-2.9v-7.8c0-2.1,0.5-3.6,1.4-4.6c1.1-1.2,2.4-1.7,4.2-1.6l0.7,0v2.5
		C114.9,45.9,114.5,45.9,114.2,45.9"/>
	<polyline class="st0" points="104,42.3 104,57.5 101.1,57.5 101.1,42.3 95,42.3 95,39.8 110.2,39.8 110.2,42.3 	"/>
</g>
</svg>
