<svg width="200" height="33" viewBox="0 0 200 33" fill="none" xmlns="http://www.w3.org/2000/svg">
<path d="M79.6052 25.1447C79.6052 25.6381 79.2104 26.0329 78.717 26.0329C78.2236 26.0329 77.8289 25.6052 77.8289 25.1447C77.8289 24.6842 78.2565 24.2566 78.717 24.2566C79.2104 24.2237 79.6052 24.6184 79.6052 25.1447Z" fill="#F16522"/>
<path d="M81.6118 21.5593C81.6118 21.8883 81.3487 22.1843 80.9868 22.1843C80.6579 22.1843 80.3618 21.9212 80.3618 21.5593C80.3618 21.2304 80.625 20.9343 80.9868 20.9343C81.3487 20.9343 81.6118 21.2304 81.6118 21.5593Z" fill="#F16522"/>
<path d="M82.7301 18.2037C82.7301 18.4669 82.5328 18.6642 82.2696 18.6642C82.0065 18.6642 81.8091 18.4669 81.8091 18.2037C81.8091 17.9405 82.0065 17.7432 82.2696 17.7432C82.5328 17.7432 82.7301 17.9405 82.7301 18.2037Z" fill="#F16522"/>
<path d="M75.7895 28.171C75.7895 28.7631 75.296 29.2565 74.7039 29.2565C74.1118 29.2565 73.6184 28.7631 73.6184 28.171C73.6184 27.5789 74.1118 27.0854 74.7039 27.0854C75.296 27.0854 75.7895 27.5789 75.7895 28.171Z" fill="#F16522"/>
<path d="M70.9868 29.3552C70.9868 30.0789 70.3947 30.671 69.671 30.671C68.9473 30.671 68.3552 30.0789 68.3552 29.3552C68.3552 28.6315 68.9473 28.0394 69.671 28.0394C70.3947 28.0065 70.9868 28.5986 70.9868 29.3552Z" fill="#F16522"/>
<path d="M65.3288 28.3683C65.3288 29.2235 64.6051 29.9472 63.7498 29.9472C62.8946 29.9472 62.1709 29.2235 62.1709 28.3683C62.1709 27.513 62.8946 26.7893 63.7498 26.7893C64.6051 26.7893 65.3288 27.4801 65.3288 28.3683Z" fill="#F16522"/>
<path d="M59.8025 24.8157C59.8025 25.9012 58.9472 26.7565 57.8617 26.7565C56.7762 26.7565 55.9209 25.9012 55.9209 24.8157C55.9209 23.7302 56.7762 22.8749 57.8617 22.8749C58.9472 22.842 59.8025 23.7302 59.8025 24.8157Z" fill="#F16522"/>
<path d="M56.7763 18.7303C56.7763 20.0132 55.7236 21.0658 54.4408 21.0658C53.1579 21.0658 52.1052 20.0132 52.1052 18.7303C52.1052 17.4474 53.1579 16.3948 54.4408 16.3948C55.7236 16.3948 56.7763 17.4474 56.7763 18.7303Z" fill="#F16522"/>
<path d="M56.7105 11.8554C56.7105 13.204 55.6249 14.2896 54.2762 14.2896C52.9276 14.2896 51.842 13.204 51.842 11.8554C51.842 10.5067 52.9276 9.42114 54.2762 9.42114C55.592 9.42114 56.7105 10.5067 56.7105 11.8554Z" fill="#F16522"/>
<path d="M59.4077 6.06593C59.4077 7.01988 58.6183 7.80935 57.6643 7.80935C56.7104 7.80935 55.9209 7.01988 55.9209 6.06593C55.9209 5.11198 56.7104 4.32251 57.6643 4.32251C58.6183 4.32251 59.4077 5.11198 59.4077 6.06593Z" fill="#F16522"/>
<path d="M63.8156 3.46703C63.8156 4.22361 63.1906 4.84861 62.4341 4.84861C61.6775 4.84861 61.0525 4.22361 61.0525 3.46703C61.0525 2.71045 61.6775 2.08545 62.4341 2.08545C63.1906 2.08545 63.8156 2.67755 63.8156 3.46703Z" fill="#F16522"/>
<path d="M68.4539 3.13797C68.4539 3.69718 68.0263 4.12481 67.4671 4.12481C66.9079 4.12481 66.4802 3.69718 66.4802 3.13797C66.4802 2.57875 66.9079 2.15112 67.4671 2.15112C68.0263 2.15112 68.4539 2.61165 68.4539 3.13797Z" fill="#F16522"/>
<path d="M72.0725 4.88134C72.0725 5.30897 71.7435 5.63791 71.3159 5.63791C70.8883 5.63791 70.5593 5.30897 70.5593 4.88134C70.5593 4.4537 70.8883 4.12476 71.3159 4.12476C71.7435 4.15765 72.0725 4.4866 72.0725 4.88134Z" fill="#F16522"/>
<path d="M74.1774 7.5789C74.1774 7.84206 73.9801 8.03943 73.7169 8.03943C73.4537 8.03943 73.2563 7.84206 73.2563 7.5789C73.2563 7.31575 73.4537 7.11838 73.7169 7.11838C73.9801 7.08548 74.1774 7.31575 74.1774 7.5789Z" fill="#F16522"/>
<path d="M58.3554 12.9411C58.3554 12.5464 58.3554 12.2174 58.3225 11.8885H58.9475L58.9804 12.5135H59.0133C59.2436 12.1516 59.6054 11.7898 60.2962 11.7898C60.8554 11.7898 61.2501 12.1187 61.4475 12.5793C61.5791 12.349 61.7436 12.1845 61.8751 12.0858C62.1054 11.9214 62.3686 11.8227 62.7633 11.8227C63.2896 11.8227 64.0791 12.1516 64.0791 13.5332V15.8358H63.3554V13.6319C63.3554 12.8753 63.0593 12.4148 62.5001 12.4148C62.0725 12.4148 61.7436 12.7108 61.6449 13.0727C61.612 13.1714 61.5791 13.303 61.5791 13.4345V15.8358H60.8554V13.5003C60.8554 12.8753 60.5593 12.4148 60.0001 12.4148C59.5396 12.4148 59.2107 12.7766 59.112 13.1385C59.0791 13.2372 59.0462 13.3687 59.0462 13.5003V15.8687H58.3225L58.3554 12.9411Z" fill="#6E6F71"/>
<path d="M65.6909 13.9937C65.6909 14.9477 66.3487 15.3424 67.0724 15.3424C67.5987 15.3424 67.9277 15.2437 68.1909 15.1451L68.3224 15.6385C68.0593 15.7372 67.6316 15.8687 67.0066 15.8687C65.7566 15.8687 65.033 15.0793 65.033 13.8951C65.033 12.7108 65.7566 11.7898 66.908 11.7898C68.2237 11.7898 68.5856 12.9082 68.5856 13.6319C68.5856 13.7635 68.5856 13.8951 68.5527 13.9608L65.6909 13.9937ZM67.829 13.4674C67.829 13.0069 67.6316 12.3161 66.8093 12.3161C66.0527 12.3161 65.7566 12.974 65.6909 13.4674H67.829Z" fill="#6E6F71"/>
<path d="M72.895 10.079V14.783C72.895 15.1448 72.895 15.5396 72.9279 15.8027H72.27L72.2371 15.1119C72.0069 15.5396 71.5134 15.8685 70.8555 15.8685C69.9016 15.8685 69.145 15.079 69.145 13.8948C69.145 12.6119 69.9674 11.7896 70.9542 11.7896C71.5792 11.7896 71.974 12.0856 72.1713 12.3817V10.0461L72.895 10.079ZM72.1713 13.5001C72.1713 13.4014 72.1713 13.3027 72.1384 13.204C72.0398 12.7435 71.645 12.3817 71.0858 12.3817C70.3292 12.3817 69.8687 13.0396 69.8687 13.8948C69.8687 14.6843 70.2634 15.3422 71.0529 15.3422C71.5463 15.3422 71.974 15.0132 72.1384 14.4869C72.1713 14.3882 72.1713 14.2896 72.1713 14.1909V13.5001Z" fill="#6E6F71"/>
<path d="M74.9343 10.8026C74.9343 11.0328 74.7698 11.2302 74.4738 11.2302C74.2106 11.2302 74.0461 11.0328 74.0461 10.8026C74.0461 10.5394 74.2435 10.3749 74.5067 10.3749C74.7369 10.342 74.9343 10.5394 74.9343 10.8026ZM74.1119 15.8026V11.8881H74.8356V15.8026H74.1119Z" fill="#6E6F71"/>
<path d="M78.2896 15.8028L78.2238 15.3094H78.1909C77.9607 15.6054 77.533 15.9015 76.9409 15.9015C76.1185 15.9015 75.6909 15.3422 75.6909 14.783C75.6909 13.8291 76.5462 13.3357 78.1251 13.3357V13.237C78.1251 12.908 78.0264 12.3488 77.2041 12.3488C76.8093 12.3488 76.4475 12.4475 76.1514 12.6449L75.987 12.1844C76.3159 11.987 76.8093 11.8225 77.3028 11.8225C78.5528 11.8225 78.8488 12.6449 78.8488 13.4344V14.8817C78.8488 15.2107 78.8488 15.5396 78.9146 15.8028H78.2896ZM78.1909 13.7962C77.4014 13.7962 76.4804 13.9278 76.4804 14.6844C76.4804 15.1449 76.8093 15.3751 77.1712 15.3751C77.6975 15.3751 78.0264 15.0462 78.1251 14.7172C78.158 14.6515 78.158 14.5528 78.158 14.487V13.7962H78.1909Z" fill="#6E6F71"/>
<path d="M58.3883 20.4077C58.5857 20.5063 58.8817 20.6379 59.2107 20.6379C59.6712 20.6379 59.8686 20.4405 59.8686 20.1774C59.8686 19.9142 59.7041 19.7498 59.2107 19.6182C58.5857 19.4208 58.2896 19.1248 58.2896 18.7629C58.2896 18.2695 58.7172 17.8748 59.4738 17.8748C59.8357 17.8748 60.1317 17.9734 60.3291 18.0721L60.1646 18.4998C60.033 18.434 59.7699 18.3353 59.4409 18.3353C59.0791 18.3353 58.8817 18.5327 58.8817 18.7629C58.8817 19.0261 59.0791 19.1248 59.5396 19.2892C60.1317 19.4866 60.4278 19.7498 60.4278 20.2103C60.4278 20.7366 59.9672 21.1313 59.1449 21.1313C58.7501 21.1313 58.4212 21.0655 58.1909 20.934L58.3883 20.4077Z" fill="#F16522"/>
<path d="M63.1909 20.967L63.158 20.5722C62.9606 20.8025 62.5988 21.0328 62.1054 21.0328C61.4146 21.0328 61.0527 20.6051 61.0527 20.1446C61.0527 19.388 61.8093 18.9933 63.1251 18.9933V18.9275C63.1251 18.6643 63.0593 18.2038 62.3356 18.2038C62.0067 18.2038 61.6777 18.3025 61.4475 18.4341L61.3159 18.0722C61.6119 17.9078 62.0067 17.8091 62.4672 17.8091C63.5198 17.8091 63.783 18.4341 63.783 19.0591V20.2104C63.783 20.4736 63.783 20.7367 63.8488 20.9341L63.1909 20.967ZM63.1251 19.4209C62.4343 19.4209 61.6777 19.5196 61.6777 20.1117C61.6777 20.4736 61.9409 20.638 62.2698 20.638C62.6975 20.638 62.9935 20.3749 63.1251 20.1446C63.1251 20.0788 63.158 20.013 63.158 19.9801V19.4209H63.1251Z" fill="#F16522"/>
<path d="M64.7371 16.4934H65.3621V21H64.7371V16.4934Z" fill="#F16522"/>
<path d="M66.7434 19.5526C66.7434 20.3091 67.3026 20.6052 67.9276 20.6052C68.3552 20.6052 68.6513 20.5394 68.8816 20.4407L68.9802 20.8355C68.75 20.9341 68.3881 21.0328 67.8289 21.0328C66.7763 21.0328 66.1184 20.4078 66.1184 19.4868C66.1184 18.5657 66.7434 17.842 67.7302 17.842C68.8487 17.842 69.1447 18.7302 69.1447 19.2894C69.1447 19.3881 69.1447 19.4868 69.1447 19.5526H66.7434ZM68.5855 19.1578C68.5855 18.796 68.421 18.2697 67.7302 18.2697C67.1052 18.2697 66.8092 18.796 66.7763 19.1578H68.5855Z" fill="#F16522"/>
<path d="M69.9015 20.4077C70.0988 20.5063 70.3949 20.6379 70.7238 20.6379C71.1844 20.6379 71.3817 20.4405 71.3817 20.1774C71.3817 19.9142 71.2173 19.7498 70.7238 19.6182C70.0988 19.4208 69.8028 19.1248 69.8028 18.7629C69.8028 18.2695 70.2304 17.8748 70.987 17.8748C71.3489 17.8748 71.6449 17.9734 71.8423 18.0721L71.6778 18.4998C71.5462 18.434 71.2831 18.3353 70.9541 18.3353C70.5923 18.3353 70.3949 18.5327 70.3949 18.7629C70.3949 19.0261 70.5923 19.1248 71.0528 19.2892C71.6449 19.4866 71.941 19.7498 71.941 20.2103C71.941 20.7366 71.4804 21.1313 70.6581 21.1313C70.2633 21.1313 69.9344 21.0655 69.7041 20.934L69.9015 20.4077Z" fill="#F16522"/>
<path d="M89.4407 9.65102C89.4407 8.63128 89.4078 7.77602 89.3749 6.92076H91.0197L91.0855 8.56549H91.1513C91.7105 7.64444 92.6973 6.72339 94.4078 6.72339C95.8223 6.72339 96.9078 7.54576 97.3355 8.72997H97.3684C97.6973 8.17076 98.092 7.74312 98.5197 7.41418C99.1447 6.95365 99.8355 6.72339 100.789 6.72339C102.171 6.72339 104.178 7.57865 104.178 11.0984V17.0194H102.335V11.2629C102.335 9.35497 101.612 8.17076 100.099 8.17076C99.046 8.17076 98.1907 8.96023 97.8618 9.84839C97.796 10.0787 97.6973 10.4076 97.6973 10.7365V16.9208H95.8552V10.901C95.8552 9.32207 95.1315 8.13786 93.6841 8.13786C92.4999 8.13786 91.6447 9.02602 91.3486 9.97997C91.217 10.276 91.1841 10.5392 91.1841 10.8681V16.9537H89.342V9.65102H89.4407Z" fill="#6E6F71"/>
<path d="M108.322 12.2826C108.355 14.7826 110 15.8023 111.875 15.8023C113.224 15.8023 114.046 15.5721 114.737 15.276L115.066 16.5918C114.408 16.8879 113.256 17.2168 111.645 17.2168C108.454 17.2168 106.546 15.1773 106.546 12.151C106.546 9.12471 108.388 6.72339 111.381 6.72339C114.77 6.72339 115.658 9.61813 115.658 11.4602C115.658 11.8221 115.625 12.1181 115.592 12.3155L108.322 12.2826ZM113.816 10.9997C113.849 9.8155 113.322 8.03918 111.217 8.03918C109.309 8.03918 108.487 9.74971 108.322 10.9997H113.816Z" fill="#6E6F71"/>
<path d="M126.908 2.21704V14.3552C126.908 15.2434 126.941 16.2631 126.974 16.9539H125.329L125.263 15.2105H125.23C124.671 16.3618 123.388 17.1513 121.678 17.1513C119.178 17.1513 117.237 15.1118 117.237 12.0526C117.204 8.69731 119.342 6.62494 121.875 6.62494C123.454 6.62494 124.54 7.34862 125 8.17099H125.033V2.21704H126.908ZM125.033 11.0328C125.033 10.8026 125 10.5065 124.967 10.2434C124.671 9.05915 123.651 8.13809 122.237 8.13809C120.296 8.13809 119.145 9.81573 119.145 12.0197C119.145 14.0591 120.165 15.7368 122.204 15.7368C123.454 15.7368 124.605 14.9144 124.967 13.5328C125.033 13.3026 125.033 13.0394 125.033 12.7434V11.0328Z" fill="#6E6F71"/>
<path d="M132.138 4.09175C132.171 4.71675 131.678 5.24306 130.954 5.24306C130.296 5.24306 129.802 4.74964 129.802 4.09175C129.802 3.43385 130.296 2.94043 130.987 2.94043C131.678 2.97332 132.138 3.43385 132.138 4.09175ZM130.033 16.9865V6.92069H131.908V16.9865H130.033Z" fill="#6E6F71"/>
<path d="M140.757 16.9867L140.592 15.7367H140.526C139.967 16.5262 138.849 17.2499 137.336 17.2499C135.263 17.2499 134.145 15.8354 134.145 14.3551C134.145 11.9209 136.382 10.6051 140.395 10.6051V10.4078C140.395 9.58541 140.164 8.07225 138.026 8.07225C137.04 8.07225 136.086 8.36831 135.329 8.79594L134.934 7.57883C135.79 7.05252 137.007 6.69067 138.322 6.69067C141.513 6.69067 142.27 8.79594 142.27 10.8025V14.5525C142.27 15.4078 142.303 16.263 142.434 16.9538H140.757V16.9867ZM140.526 11.8551C138.487 11.8223 136.118 12.1841 136.118 14.1249C136.118 15.3091 136.941 15.8683 137.928 15.8683C139.276 15.8683 140.132 15.0459 140.428 14.1907C140.493 13.9933 140.559 13.7959 140.559 13.6315V11.8551H140.526Z" fill="#6E6F71"/>
<path d="M89.5395 28.8288C90.0329 29.1248 90.8553 29.388 91.6448 29.388C92.829 29.388 93.3553 28.8616 93.3553 28.2038C93.3553 27.513 92.8948 27.1511 91.6777 26.7235C90.0987 26.2301 89.3092 25.4077 89.3092 24.4866C89.3092 23.2366 90.4605 22.1511 92.3684 22.1511C93.2566 22.1511 94.0461 22.3814 94.5724 22.6445L94.1776 23.6972C93.8158 23.4998 93.1908 23.2367 92.3356 23.2367C91.4145 23.2367 90.8553 23.7301 90.8553 24.2893C90.8553 24.9472 91.3816 25.2103 92.5329 25.638C94.079 26.1643 94.8684 26.8551 94.8684 28.0064C94.8684 29.388 93.6513 30.3748 91.5132 30.3748C90.5263 30.3748 89.6382 30.1774 89.0132 29.8485L89.5395 28.8288Z" fill="#F16522"/>
<path d="M101.941 30.3087L101.809 29.3219H101.776C101.283 29.9469 100.296 30.5061 99.0462 30.5061C97.237 30.5061 96.3159 29.3548 96.3159 28.2364C96.3159 26.3285 98.2238 25.3087 101.645 25.3087V25.1442C101.645 24.4864 101.447 23.3021 99.6054 23.3021C98.783 23.3021 97.9278 23.5324 97.2699 23.8614L96.908 22.9403C97.6317 22.5456 98.7172 22.2495 99.8357 22.2495C102.566 22.2495 103.224 23.8942 103.224 25.4732V28.4008C103.224 29.0916 103.257 29.7495 103.388 30.2758H101.908V30.3087H101.941ZM101.711 26.3285C99.9672 26.2956 97.9607 26.5587 97.9607 28.1377C97.9607 29.0587 98.6514 29.5192 99.4738 29.5192C100.625 29.5192 101.349 28.8614 101.645 28.2035C101.678 28.039 101.711 27.8745 101.711 27.7429V26.3285Z" fill="#F16522"/>
<path d="M105.888 18.73H107.533V30.3089H105.888V18.73Z" fill="#F16522"/>
<path d="M111.086 26.6245C111.119 28.5653 112.5 29.3548 114.145 29.3548C115.296 29.3548 115.987 29.1903 116.579 28.96L116.875 29.9798C116.316 30.21 115.329 30.4732 113.915 30.4732C111.184 30.4732 109.54 28.8942 109.54 26.4929C109.54 24.0916 111.118 22.2495 113.684 22.2495C116.579 22.2495 117.368 24.5192 117.368 25.9666C117.368 26.2627 117.336 26.4929 117.336 26.6245H111.086ZM115.822 25.6048C115.822 24.7166 115.428 23.2692 113.586 23.2692C111.941 23.2692 111.217 24.6179 111.086 25.6048H115.822Z" fill="#F16522"/>
<path d="M119.177 28.8288C119.671 29.1248 120.493 29.388 121.283 29.388C122.467 29.388 122.993 28.8616 122.993 28.2038C122.993 27.513 122.533 27.1511 121.316 26.7235C119.737 26.2301 118.947 25.4077 118.947 24.4866C118.947 23.2366 120.098 22.1511 122.006 22.1511C122.895 22.1511 123.684 22.3814 124.21 22.6445L123.816 23.6972C123.454 23.4998 122.829 23.2367 121.973 23.2367C121.052 23.2367 120.493 23.7301 120.493 24.2893C120.493 24.9472 121.02 25.2103 122.171 25.638C123.717 26.1643 124.506 26.8551 124.506 28.0064C124.506 29.388 123.289 30.3748 121.151 30.3748C120.164 30.3748 119.276 30.1774 118.651 29.8485L119.177 28.8288Z" fill="#F16522"/>
</svg>