<svg id="Layer_1" data-name="Layer 1" xmlns="http://www.w3.org/2000/svg" viewBox="0 0 300 100"><path d="M132.47,58.77a.88.88,0,0,1-.89.88.9.9,0,0,1-.89-.88.93.93,0,0,1,.89-.89A.85.85,0,0,1,132.47,58.77Z" style="fill:#bdbdbd"/><path d="M134.47,55.18a.63.63,0,0,1-.62.63.63.63,0,0,1-.63-.63.63.63,0,0,1,.63-.62A.62.62,0,0,1,134.47,55.18Z" style="fill:#bdbdbd"/><path d="M135.59,51.83a.46.46,0,1,1-.46-.47A.45.45,0,0,1,135.59,51.83Z" style="fill:#bdbdbd"/><path d="M128.65,61.79a1.09,1.09,0,1,1-1.08-1.08A1.1,1.1,0,0,1,128.65,61.79Z" style="fill:#bdbdbd"/><path d="M123.85,63a1.32,1.32,0,1,1-1.32-1.32A1.28,1.28,0,0,1,123.85,63Z" style="fill:#bdbdbd"/><path d="M118.19,62a1.58,1.58,0,1,1-1.58-1.58A1.58,1.58,0,0,1,118.19,62Z" style="fill:#bdbdbd"/><path d="M112.66,58.44a1.94,1.94,0,1,1-1.94-1.94A1.89,1.89,0,0,1,112.66,58.44Z" style="fill:#bdbdbd"/><path d="M109.64,52.35A2.34,2.34,0,1,1,107.3,50,2.35,2.35,0,0,1,109.64,52.35Z" style="fill:#bdbdbd"/><path d="M109.57,45.48A2.44,2.44,0,1,1,107.14,43,2.45,2.45,0,0,1,109.57,45.48Z" style="fill:#bdbdbd"/><path d="M112.27,39.69a1.75,1.75,0,1,1-1.74-1.75A1.75,1.75,0,0,1,112.27,39.69Z" style="fill:#bdbdbd"/><path d="M116.68,37.09a1.39,1.39,0,1,1-1.38-1.38A1.37,1.37,0,0,1,116.68,37.09Z" style="fill:#bdbdbd"/><path d="M121.32,36.76a1,1,0,1,1-1-1A1,1,0,0,1,121.32,36.76Z" style="fill:#bdbdbd"/><path d="M124.93,38.5a.74.74,0,0,1-.75.76.76.76,0,1,1,0-1.51A.78.78,0,0,1,124.93,38.5Z" style="fill:#bdbdbd"/><path d="M127,41.2a.46.46,0,1,1-.46-.46A.44.44,0,0,1,127,41.2Z" style="fill:#bdbdbd"/><path d="M111.22,46.56a8.7,8.7,0,0,0,0-1.05h.63l0,.63h0a1.41,1.41,0,0,1,1.28-.73,1.22,1.22,0,0,1,1.15.79,1.65,1.65,0,0,1,.43-.49,1.39,1.39,0,0,1,.89-.27c.52,0,1.31.33,1.31,1.71v2.31h-.72V47.25c0-.75-.3-1.21-.86-1.21a.88.88,0,0,0-.85.65,1,1,0,0,0-.07.37v2.4h-.72V47.12c0-.62-.3-1.08-.86-1.08a1,1,0,0,0-.89.72,1.29,1.29,0,0,0-.06.36v2.37h-.73Z" style="fill:#bdbdbd"/><path d="M118.55,47.62A1.26,1.26,0,0,0,119.93,49a2.94,2.94,0,0,0,1.12-.19l.13.49a3.57,3.57,0,0,1-1.31.23,1.84,1.84,0,0,1-2-2,1.92,1.92,0,0,1,1.88-2.11,1.68,1.68,0,0,1,1.68,1.84.74.74,0,0,1,0,.33Zm2.14-.53a1,1,0,0,0-1-1.15,1.18,1.18,0,0,0-1.12,1.15Z" style="fill:#bdbdbd"/><path d="M125.76,43.7v4.7c0,.37,0,.76,0,1h-.66l0-.69a1.52,1.52,0,0,1-1.38.76,1.79,1.79,0,0,1-1.71-2,1.91,1.91,0,0,1,1.81-2.11A1.4,1.4,0,0,1,125,46V43.67ZM125,47.12a.92.92,0,0,0,0-.29,1,1,0,0,0-1-.83c-.76,0-1.22.66-1.22,1.52s.4,1.44,1.18,1.44a1.14,1.14,0,0,0,1.09-.85,1,1,0,0,0,0-.3Z" style="fill:#bdbdbd"/><path d="M127.8,44.42a.43.43,0,0,1-.46.43.41.41,0,0,1-.43-.43.42.42,0,0,1,.46-.42A.39.39,0,0,1,127.8,44.42Zm-.83,5V45.51h.73v3.91Z" style="fill:#bdbdbd"/><path d="M131.15,49.42l-.06-.49h0a1.56,1.56,0,0,1-1.25.59,1.15,1.15,0,0,1-1.25-1.12c0-.95.86-1.44,2.44-1.44v-.1a.81.81,0,0,0-.92-.89,1.88,1.88,0,0,0-1.06.3l-.16-.46a2.65,2.65,0,0,1,1.31-.37,1.42,1.42,0,0,1,1.55,1.62V48.5a3.78,3.78,0,0,0,.07.92Zm-.1-2c-.79,0-1.71.13-1.71.89A.66.66,0,0,0,130,49a1,1,0,0,0,1-.66.63.63,0,0,0,0-.23v-.69Z" style="fill:#bdbdbd"/><path d="M111.25,54a1.85,1.85,0,0,0,.82.23c.46,0,.66-.2.66-.46s-.16-.43-.66-.56-.92-.49-.92-.86.43-.88,1.19-.88a2.06,2.06,0,0,1,.85.19l-.16.43a1.84,1.84,0,0,0-.73-.16c-.36,0-.56.19-.56.42s.2.37.66.53.89.46.89.92-.46.92-1.28.92a2,2,0,0,1-1-.19Z" style="fill:#bdbdbd"/><path d="M116.05,54.59l0-.4a1.39,1.39,0,0,1-1,.46.94.94,0,0,1-1.06-.88c0-.76.76-1.15,2.08-1.15v-.07c0-.26-.07-.72-.79-.72a1.78,1.78,0,0,0-.89.23l-.13-.37a2.41,2.41,0,0,1,1.15-.26,1.14,1.14,0,0,1,1.31,1.25v1.15a2.35,2.35,0,0,0,.07.73ZM116,53c-.69,0-1.45.1-1.45.69,0,.37.26.53.59.53a1,1,0,0,0,.86-.49,1.39,1.39,0,0,1,0-.17V53Z" style="fill:#bdbdbd"/><path d="M117.6,50.12h.62v4.5h-.62Z" style="fill:#bdbdbd"/><path d="M119.61,53.17a1,1,0,0,0,1.18,1.06,2.3,2.3,0,0,0,.95-.17l.1.4a2.88,2.88,0,0,1-1.15.19A1.53,1.53,0,0,1,119,53.11a1.57,1.57,0,0,1,1.61-1.65A1.36,1.36,0,0,1,122,52.91v.26Zm1.84-.39a.82.82,0,0,0-.86-.89,1,1,0,0,0-1,.89Z" style="fill:#bdbdbd"/><path d="M122.76,54a1.9,1.9,0,0,0,.83.23c.46,0,.65-.2.65-.46s-.16-.43-.65-.56-.93-.49-.93-.86.43-.88,1.19-.88a2,2,0,0,1,.85.19l-.16.43a1.74,1.74,0,0,0-.72-.16c-.37,0-.56.19-.56.42s.19.37.65.53.89.46.89.92-.46.92-1.28.92a2,2,0,0,1-1-.19Z" style="fill:#bdbdbd"/><path d="M142.3,43.27c0-1,0-1.87-.06-2.73h1.64l.07,1.65H144a3.64,3.64,0,0,1,3.26-1.84,3,3,0,0,1,2.93,2h0A4.37,4.37,0,0,1,151.38,41a3.61,3.61,0,0,1,2.27-.69c1.38,0,3.39.85,3.39,4.37v5.92H155.2V44.88c0-1.9-.73-3.09-2.24-3.09a2.5,2.5,0,0,0-2.24,1.68,3.55,3.55,0,0,0-.16.89v6.18h-1.84v-6c0-1.58-.73-2.76-2.17-2.76a2.52,2.52,0,0,0-2.34,1.84,2.07,2.07,0,0,0-.16.89v6.09H142.2V43.27Z" style="fill:#bdbdbd"/><path d="M161.18,45.9a3.29,3.29,0,0,0,3.56,3.52,6.9,6.9,0,0,0,2.86-.52l.33,1.31a8.41,8.41,0,0,1-3.42.63,4.74,4.74,0,0,1-5.1-5.07c0-3,1.84-5.42,4.83-5.42,3.39,0,4.28,2.89,4.28,4.73a4.62,4.62,0,0,1-.07.86Zm5.5-1.28a2.61,2.61,0,0,0-2.6-3,3.09,3.09,0,0,0-2.9,3Z" style="fill:#bdbdbd"/><path d="M179.77,35.84V48c0,.89,0,1.9.07,2.6h-1.65l-.07-1.75h0a3.77,3.77,0,0,1-3.55,1.94c-2.5,0-4.44-2-4.44-5.1,0-3.35,2.1-5.42,4.64-5.42a3.45,3.45,0,0,1,3.12,1.54h0V35.84Zm-1.88,8.81a7.39,7.39,0,0,0-.06-.78,2.75,2.75,0,0,0-2.73-2.11c-1.94,0-3.09,1.68-3.09,3.88,0,2,1,3.72,3.06,3.72a2.84,2.84,0,0,0,2.76-2.21,3.17,3.17,0,0,0,.06-.78Z" style="fill:#bdbdbd"/><path d="M185,37.71a1.11,1.11,0,0,1-1.18,1.15,1.13,1.13,0,0,1-1.16-1.15,1.17,1.17,0,0,1,2.34,0Zm-2.1,12.9V40.54h1.87V50.61Z" style="fill:#bdbdbd"/><path d="M193.62,50.61l-.17-1.25h-.06a3.88,3.88,0,0,1-3.19,1.51A2.93,2.93,0,0,1,187,48c0-2.44,2.23-3.75,6.25-3.75V44a2.11,2.11,0,0,0-2.37-2.34,5.57,5.57,0,0,0-2.7.73l-.39-1.22a6.56,6.56,0,0,1,3.38-.89c3.19,0,3.95,2.11,3.95,4.11v3.75a12.89,12.89,0,0,0,.17,2.41h-1.68Zm-.23-5.13c-2,0-4.41.33-4.41,2.27a1.65,1.65,0,0,0,1.81,1.74,2.55,2.55,0,0,0,2.5-1.68,2,2,0,0,0,.13-.56V45.48Z" style="fill:#bdbdbd"/><path d="M142.4,62.45a4.38,4.38,0,0,0,2.11.56c1.18,0,1.71-.53,1.71-1.18s-.46-1.06-1.68-1.48c-1.58-.5-2.37-1.32-2.37-2.24,0-1.25,1.15-2.34,3.06-2.34a4.93,4.93,0,0,1,2.2.5l-.39,1a3.79,3.79,0,0,0-1.84-.46c-.92,0-1.48.49-1.48,1s.52.92,1.67,1.35c1.55.53,2.34,1.22,2.34,2.37,0,1.38-1.22,2.37-3.35,2.37a5.48,5.48,0,0,1-2.5-.53Z" style="fill:#bdbdbd"/><path d="M154.8,63.93l-.13-1h0a3.5,3.5,0,0,1-2.73,1.19,2.43,2.43,0,0,1-2.73-2.27c0-1.91,1.91-2.93,5.33-2.93v-.16c0-.66-.2-1.85-2-1.85a5.42,5.42,0,0,0-2.34.56l-.36-.92a6.46,6.46,0,0,1,2.93-.69c2.73,0,3.39,1.65,3.39,3.22V62a8.29,8.29,0,0,0,.16,1.88h-1.48v0Zm-.23-4c-1.74,0-3.75.23-3.75,1.81a1.37,1.37,0,0,0,1.52,1.38,2.31,2.31,0,0,0,2.17-1.31,2.88,2.88,0,0,0,.06-.47Z" style="fill:#bdbdbd"/><path d="M158.75,52.35h1.64V63.93h-1.64Z" style="fill:#bdbdbd"/><path d="M164,60.25C164,62.19,165.36,63,167,63a6.27,6.27,0,0,0,2.43-.4l.3,1a8,8,0,0,1-3,.49c-2.73,0-4.38-1.57-4.38-4a4,4,0,0,1,4.15-4.24,3.5,3.5,0,0,1,3.68,3.72c0,.29,0,.52,0,.66Zm4.73-1a2.13,2.13,0,0,0-2.23-2.34,2.53,2.53,0,0,0-2.5,2.34Z" style="fill:#bdbdbd"/><path d="M172,62.45a4.33,4.33,0,0,0,2.1.56c1.19,0,1.71-.53,1.71-1.18s-.46-1.06-1.67-1.48c-1.58-.5-2.37-1.32-2.37-2.24,0-1.25,1.15-2.34,3.06-2.34a4.93,4.93,0,0,1,2.2.5l-.39,1a3.8,3.8,0,0,0-1.85-.46c-.92,0-1.48.49-1.48,1s.53.92,1.68,1.35c1.55.53,2.34,1.22,2.34,2.37C177.37,63,176.15,64,174,64a5.55,5.55,0,0,1-2.5-.53Z" style="fill:#bdbdbd"/></svg>