<?xml version="1.0" encoding="utf-8"?>
<!-- Generator: Adobe Illustrator 24.2.3, SVG Export Plug-In . SVG Version: 6.00 Build 0)  -->
<svg version="1.1" id="Layer_1" xmlns="http://www.w3.org/2000/svg" xmlns:xlink="http://www.w3.org/1999/xlink" x="0px" y="0px"
	 viewBox="0 0 160 40" style="enable-background:new 0 0 160 40;" xml:space="preserve">
<style type="text/css">
	.st0{fill:#FFFFFF;}
	.st1{fill:#FBFBFB;}
</style>
<g>
	<rect class="st0" width="20" height="20"/>
	<rect x="20" class="st1" width="20" height="20"/>
	<rect y="20" class="st1" width="20" height="20"/>
	<path class="st0" d="M36.9,29c0.9,0.7,1.3,1.9,1.3,3c0.1,1.1-0.4,2.3-1.3,3c-1,0.7-2.2,1.1-3.5,1h-2.2v3.5c0,0.1,0,0.2-0.1,0.3
		C31,39.9,30.9,40,30.7,40h-2.3c-0.2,0-0.4-0.2-0.5-0.5v-11c0-0.2,0.2-0.4,0.5-0.5h4.9C34.6,27.9,35.9,28.3,36.9,29z M33.3,33.4
		c0.4,0,0.8-0.1,1.2-0.3c0.3-0.3,0.5-0.6,0.5-1c0-0.4-0.1-0.8-0.5-1c-0.4-0.2-0.8-0.3-1.2-0.3h-2.1v2.7H33.3z"/>
	<path class="st0" d="M40.1,39.8C40,39.8,40,39.6,40,39.5V28.5c0-0.1,0-0.2,0.1-0.3c0.1-0.1,0.2-0.1,0.3-0.1h2.3
		c0.2,0,0.4,0.2,0.5,0.5v11.1c0,0.1-0.1,0.2-0.1,0.3C43,40,42.8,40,42.7,40h-2.3C40.3,40,40.2,39.9,40.1,39.8z"/>
	<path class="st0" d="M47.7,39.6c-0.1,0.1-0.2,0.2-0.3,0.3C47.3,40,47.1,40,47,40h-2.6c-0.1,0-0.2,0-0.3-0.1
		C44,39.8,44,39.7,44,39.6c0-0.1,0-0.1,0-0.2l4-5.5l-3.8-5.3c0-0.1,0-0.1,0-0.2c0-0.1,0-0.2,0.1-0.3c0.1-0.1,0.2-0.1,0.3-0.1h2.6
		c0.2,0,0.3,0,0.4,0.1c0.1,0.1,0.2,0.2,0.3,0.3l2.1,2.9l2-2.9c0.1-0.1,0.2-0.2,0.3-0.3c0.1-0.1,0.3-0.1,0.4-0.1h2.6
		c0.2,0,0.4,0.2,0.4,0.4v0c0,0.1,0,0.1,0,0.2L51.8,34l3.9,5.5c0,0.1,0,0.1,0,0.2c0,0.1,0,0.2-0.1,0.3C55.6,40,55.5,40,55.4,40h-2.6
		c-0.1,0-0.3,0-0.4-0.1c-0.1-0.1-0.2-0.2-0.3-0.3l-2.2-3.1L47.7,39.6z"/>
	<path class="st0" d="M61.4,37.2h5.4c0.3,0,0.5,0.2,0.5,0.5v1.8c0,0.1-0.1,0.2-0.2,0.3C67.1,40,67,40,66.9,40h-8.1
		c-0.1,0-0.2,0-0.3-0.1c-0.1-0.1-0.1-0.2-0.1-0.3V28.5c0-0.1,0-0.2,0.1-0.3c0.1-0.1,0.2-0.1,0.3-0.1h8c0.1,0,0.2,0.1,0.3,0.1
		c0.1,0.1,0.1,0.2,0.1,0.3v1.8c0,0.1-0.1,0.2-0.2,0.2c-0.1,0.1-0.2,0.1-0.3,0.1h-5.3v1.9h4.9c0.1,0,0.2,0,0.3,0.1
		c0.1,0.1,0.1,0.2,0.1,0.3v1.8c0,0.1-0.1,0.2-0.1,0.3c-0.1,0.1-0.2,0.1-0.3,0.1h-4.9V37.2z"/>
	<path class="st0" d="M78.8,37.4c0.1,0.1,0.1,0.2,0.2,0.3v1.8c0,0.1-0.1,0.2-0.2,0.3C78.7,40,78.6,40,78.4,40h-8
		c-0.1,0-0.2,0-0.3-0.1C70,39.8,70,39.7,70,39.5V28.5c0-0.1,0-0.2,0.1-0.3c0.1-0.1,0.2-0.2,0.4-0.1h2.3c0.1,0,0.2,0.1,0.3,0.1
		c0.1,0.1,0.1,0.2,0.1,0.3v8.8h5.2C78.6,37.3,78.7,37.3,78.8,37.4z"/>
	<path class="st0" d="M90.4,37.4c0.1,0.1,0.1,0.2,0.1,0.3v1.8c0,0.1-0.1,0.2-0.1,0.3C90.3,40,90.2,40,90.1,40h-9.3
		c-0.1,0-0.2,0-0.3-0.1c-0.1-0.1-0.1-0.2-0.1-0.3v-1.8c0-0.1,0-0.2,0.1-0.3c0.1-0.1,0.1-0.2,0.2-0.3l5.5-6.5h-5.2
		c-0.3,0-0.5-0.2-0.5-0.5l0,0v-1.8c0-0.1,0-0.2,0.1-0.3c0.1-0.1,0.2-0.1,0.3-0.1h8.9c0.1,0,0.2,0.1,0.3,0.1c0.1,0.1,0.1,0.2,0.1,0.3
		v1.7c0,0.2-0.1,0.4-0.2,0.6l-5.5,6.5H90C90.1,37.3,90.3,37.3,90.4,37.4z"/>
	<path class="st0" d="M101.6,31.6c-0.1,0.1-0.1,0.1-0.2,0.1h-2.2c-0.1,0-0.3,0-0.4-0.1c-0.1-0.1-0.2-0.1-0.3-0.2l-0.2-0.2
		c-0.2-0.2-0.4-0.3-0.6-0.3c-0.3-0.1-0.6-0.2-0.9-0.2c-0.4,0-0.8,0.1-1.2,0.2c-0.3,0.1-0.5,0.4-0.4,0.7c0,0.2,0.1,0.4,0.3,0.5
		c0.3,0.2,0.6,0.3,0.9,0.3c0.4,0.1,1.1,0.2,2.1,0.4c1,0.1,2,0.6,2.8,1.2c1.1,1.2,1.2,3,0.2,4.2c-0.5,0.6-1.1,1-1.8,1.3
		c-0.8,0.3-1.7,0.5-2.6,0.4c-0.9,0-1.8-0.2-2.6-0.5c-0.7-0.3-1.3-0.7-1.8-1.3c-0.4-0.5-0.7-1-0.7-1.6c0-0.1,0-0.2,0.1-0.3
		c0.1-0.1,0.1-0.1,0.2-0.1h2.2c0.2,0,0.5,0.1,0.6,0.2l0.2,0.2c0.2,0.2,0.4,0.3,0.7,0.4c0.3,0.1,0.7,0.2,1,0.2c1.4,0,2.1-0.3,2.1-0.9
		c0-0.2-0.1-0.4-0.3-0.5c-0.2-0.1-0.5-0.3-0.8-0.3c-0.4-0.1-0.9-0.2-1.7-0.4l-0.7-0.2c-0.9-0.2-1.8-0.6-2.5-1.2
		c-0.6-0.6-0.8-1.4-0.8-2.3c0-0.6,0.2-1.3,0.6-1.8c0.4-0.6,1-1,1.7-1.3c1.6-0.7,3.3-0.7,4.9,0c0.7,0.3,1.3,0.7,1.8,1.3
		c0.4,0.4,0.6,0.9,0.7,1.5C101.7,31.4,101.7,31.5,101.6,31.6z"/>
	<path class="st0" d="M111.2,28.6c0.7,0.4,1.3,0.9,1.8,1.6c0.4,0.7,0.7,1.5,0.7,2.3v3c0,0.8-0.3,1.6-0.7,2.3c-0.4,0.7-1,1.2-1.8,1.6
		c-1.7,0.8-3.7,0.8-5.5,0c-0.7-0.4-1.3-0.9-1.8-1.6c-0.4-0.7-0.7-1.5-0.7-2.3v-3c0-0.8,0.3-1.6,0.7-2.3c0.4-0.7,1-1.2,1.8-1.6
		C107.5,27.8,109.5,27.8,111.2,28.6z M110,31.2c-0.9-0.7-2.1-0.7-3,0c-0.4,0.4-0.6,0.9-0.6,1.4v2.8c0,0.5,0.3,1,0.6,1.4
		c0.9,0.7,2.1,0.7,3,0c0.4-0.4,0.6-0.9,0.6-1.4v-2.8C110.6,32.1,110.3,31.6,110,31.2L110,31.2z"/>
	<path class="st0" d="M125.1,37.4c0.1,0.1,0.1,0.2,0.1,0.3v1.8c0,0.1-0.1,0.2-0.1,0.3c-0.1,0.1-0.2,0.1-0.3,0.1h-8
		c-0.1,0-0.2,0-0.3-0.1c-0.1-0.1-0.1-0.2-0.1-0.3V28.5c0-0.3,0.2-0.5,0.5-0.5h2.3c0.2,0,0.4,0.2,0.5,0.5v8.8h5.3
		C124.9,37.3,125,37.3,125.1,37.4z"/>
	<path class="st0" d="M136.8,34v1.2c0,0.9-0.3,1.7-0.7,2.5c-0.5,0.7-1.1,1.3-1.9,1.7c-0.8,0.4-1.8,0.6-2.7,0.6h-4.6
		c-0.3,0-0.5-0.2-0.5-0.5l0,0V28.5c0-0.1,0-0.2,0.1-0.3c0.1-0.1,0.2-0.1,0.3-0.1h4.6c1,0,1.9,0.2,2.8,0.6c1.6,0.8,2.6,2.4,2.6,4.2
		C136.8,33.4,136.8,33.8,136.8,34z M129.5,30.7v6.5h1.8c1.4,0,2.2-0.7,2.3-2v-2.6c0-0.6-0.2-1.1-0.6-1.5c-0.5-0.4-1.1-0.5-1.7-0.5
		H129.5z"/>
	<path class="st0" d="M146,28.6c0.7,0.4,1.3,0.9,1.8,1.6c0.4,0.7,0.7,1.5,0.7,2.3v3c0,0.8-0.3,1.6-0.7,2.3c-0.4,0.7-1,1.2-1.8,1.6
		c-1.7,0.8-3.7,0.8-5.5,0c-0.7-0.4-1.3-0.9-1.8-1.6c-0.4-0.7-0.7-1.5-0.7-2.3v-3c0-0.8,0.3-1.6,0.7-2.3c0.4-0.7,1.1-1.2,1.8-1.6
		C142.2,27.8,144.2,27.8,146,28.6z M144.7,31.2c-0.9-0.7-2.1-0.7-3,0c-0.4,0.4-0.6,0.9-0.6,1.4c0,0.4,0,0.8,0,1.4c0,0.5,0,0.9,0,1.4
		c0,0.5,0.3,1,0.6,1.4c0.9,0.7,2.1,0.7,3,0c0.4-0.4,0.6-0.9,0.6-1.4V34c0-0.5,0-0.9,0-1.4C145.3,32.1,145.1,31.5,144.7,31.2
		L144.7,31.2z"/>
	<path class="st0" d="M159.6,31.5c-0.1,0.1-0.1,0.1-0.2,0.1h-2.2c-0.1,0-0.2,0-0.4-0.1c-0.1-0.1-0.2-0.1-0.3-0.2l-0.2-0.2
		c-0.2-0.2-0.4-0.3-0.6-0.3c-0.3-0.1-0.6-0.2-0.9-0.2c-0.4,0-0.8,0-1.2,0.2c-0.3,0.1-0.5,0.4-0.5,0.7c0,0.2,0.1,0.4,0.3,0.5
		c0.3,0.2,0.6,0.3,0.9,0.3c0.4,0.1,1.1,0.3,2.1,0.5c1,0.1,2,0.6,2.8,1.2c1.1,1.2,1.2,3,0.2,4.3c-0.5,0.6-1.1,1-1.8,1.3
		c-0.9,0.3-1.8,0.5-2.7,0.4c-0.9,0-1.8-0.2-2.6-0.5c-0.7-0.3-1.4-0.7-1.9-1.3c-0.4-0.5-0.7-1-0.7-1.7c0-0.1,0-0.2,0.1-0.3
		c0.1-0.1,0.1-0.1,0.2-0.1h2.2c0.2,0,0.5,0.1,0.6,0.2l0.3,0.3c0.2,0.2,0.4,0.3,0.6,0.4c0.3,0.1,0.7,0.2,1,0.2c1.4,0,2.1-0.3,2.1-0.9
		c0-0.2-0.1-0.4-0.3-0.5c-0.2-0.2-0.5-0.3-0.8-0.3c-0.4-0.1-0.9-0.2-1.7-0.4l-0.7-0.2c-0.9-0.1-1.8-0.6-2.5-1.2
		c-0.6-0.6-0.8-1.4-0.8-2.3c0-0.6,0.2-1.3,0.6-1.8c0.4-0.6,1-1,1.7-1.3c1.6-0.7,3.4-0.7,4.9,0c0.7,0.3,1.3,0.7,1.8,1.3
		c0.4,0.4,0.6,0.9,0.7,1.5C159.7,31.4,159.6,31.5,159.6,31.5z"/>
</g>
</svg>
