<svg width="150" height="50" viewBox="0 0 150 50" fill="none" xmlns="http://www.w3.org/2000/svg">
<path d="M18.75 0H0V18.75H18.75V0Z" fill="#FFFFFF"/>
<path d="M37.5 0H18.75V18.75H37.5V0Z" fill="#FBFBFB"/>
<path d="M18.75 18.75H0V37.5H18.75V18.75Z" fill="#FBFBFB"/>
<path d="M34.5675 27.1801C34.9704 27.5256 35.2867 27.9606 35.4912 28.4503C35.6957 28.94 35.7826 29.4708 35.745 30.0001C35.7808 30.5282 35.693 31.0573 35.4887 31.5455C35.2843 32.0338 34.9689 32.4676 34.5675 32.8126C33.6173 33.4969 32.4583 33.8284 31.29 33.7501H29.25V37.0426C29.2507 37.0987 29.2397 37.1544 29.2178 37.206C29.1958 37.2577 29.1634 37.3042 29.1225 37.3426C29.081 37.3836 29.0318 37.4159 28.9777 37.4378C28.9237 37.4597 28.8658 37.4707 28.8075 37.4701H26.685C26.5717 37.4538 26.4671 37.3998 26.3882 37.3168C26.3093 37.2338 26.2606 37.1266 26.25 37.0126V26.7001C26.2571 26.5871 26.3052 26.4805 26.3853 26.4004C26.4654 26.3203 26.572 26.2722 26.685 26.2651H31.29C32.4555 26.1816 33.6138 26.505 34.5675 27.1801V27.1801ZM31.2225 31.2676C31.6228 31.2853 32.0186 31.1778 32.355 30.9601C32.5002 30.8447 32.6151 30.6955 32.6896 30.5256C32.7641 30.3557 32.796 30.1702 32.7825 29.9851C32.7974 29.801 32.7661 29.6161 32.6914 29.4472C32.6168 29.2782 32.5011 29.1306 32.355 29.0176C32.0195 28.7987 31.6224 28.6936 31.2225 28.7176H29.2875V31.2676H31.2225Z" fill="#FFFFFF"/>
<path d="M37.6275 37.3575C37.5873 37.3185 37.5554 37.2719 37.5335 37.2204C37.5116 37.1689 37.5002 37.1135 37.5 37.0575V26.685C37.5002 26.629 37.5116 26.5736 37.5335 26.5221C37.5554 26.4706 37.5873 26.424 37.6275 26.385C37.7083 26.3013 37.8187 26.2528 37.935 26.25H40.05C40.163 26.2571 40.2696 26.3052 40.3497 26.3853C40.4298 26.4654 40.4779 26.572 40.485 26.685V37.0725C40.4843 37.1291 40.4719 37.1849 40.4487 37.2365C40.4255 37.2882 40.3919 37.3344 40.35 37.3725C40.3116 37.4134 40.265 37.4458 40.2134 37.4678C40.1618 37.4897 40.1061 37.5007 40.05 37.5H37.935C37.8764 37.5004 37.8185 37.4878 37.7653 37.4632C37.7121 37.4385 37.6651 37.4024 37.6275 37.3575V37.3575Z" fill="#FFFFFF"/>
<path d="M44.7075 37.1325C44.6381 37.2406 44.5491 37.3347 44.445 37.41C44.3256 37.4748 44.1908 37.5059 44.055 37.5H41.61C41.5632 37.5015 41.5165 37.4937 41.4727 37.477C41.4289 37.4602 41.3889 37.4349 41.355 37.4025C41.3216 37.369 41.2951 37.3292 41.2771 37.2855C41.2591 37.2417 41.2499 37.1948 41.25 37.1475C41.2497 37.0847 41.2652 37.0228 41.295 36.9675L45 31.7775L41.4525 26.7825C41.445 26.7253 41.445 26.6673 41.4525 26.61C41.458 26.5142 41.498 26.4237 41.565 26.355C41.5966 26.3211 41.6349 26.2943 41.6776 26.2762C41.7202 26.2581 41.7662 26.2492 41.8125 26.25H44.25C44.3952 26.2389 44.5393 26.2816 44.655 26.37C44.7558 26.4519 44.8442 26.5479 44.9175 26.655L46.8525 29.37L48.75 26.655C48.826 26.5477 48.917 26.4517 49.02 26.37C49.136 26.2823 49.2799 26.2396 49.425 26.25H51.8775C51.973 26.25 52.0646 26.2879 52.1321 26.3555C52.1996 26.423 52.2375 26.5145 52.2375 26.61C52.2524 26.6666 52.2524 26.726 52.2375 26.7825L48.5925 31.845L52.275 36.9675C52.2899 37.0266 52.2899 37.0884 52.275 37.1475C52.2751 37.1948 52.2659 37.2417 52.2479 37.2855C52.2299 37.3292 52.2034 37.369 52.17 37.4025C52.1361 37.4349 52.0961 37.4602 52.0523 37.477C52.0085 37.4937 51.9619 37.5015 51.915 37.5H49.5C49.3617 37.5073 49.2242 37.4761 49.1025 37.41C48.9984 37.3347 48.9094 37.2406 48.84 37.1325L46.7775 34.23L44.7075 37.1325Z" fill="#FFFFFF"/>
<path d="M57.5775 34.92H62.6775C62.7914 34.9269 62.8988 34.9748 62.9802 35.0547C63.0615 35.1347 63.1112 35.2413 63.12 35.355V37.0725C63.1179 37.1296 63.1042 37.1857 63.0797 37.2372C63.0552 37.2888 63.0204 37.3349 62.9775 37.3725C62.9391 37.4134 62.8926 37.4459 62.8409 37.4678C62.7893 37.4898 62.7336 37.5007 62.6775 37.5H55.0875C55.029 37.5024 54.9706 37.4922 54.9163 37.4702C54.862 37.4483 54.813 37.415 54.7725 37.3725C54.733 37.3335 54.702 37.2866 54.6813 37.235C54.6607 37.1834 54.6509 37.1281 54.6525 37.0725V26.6851C54.6513 26.6295 54.6613 26.5744 54.6819 26.5228C54.7025 26.4713 54.7334 26.4244 54.7725 26.385C54.8126 26.3417 54.8613 26.3072 54.9156 26.284C54.9699 26.2607 55.0285 26.2491 55.0875 26.25H62.5875C62.6454 26.2497 62.7027 26.2616 62.7556 26.2848C62.8086 26.3081 62.8561 26.3422 62.895 26.385C62.9352 26.424 62.9672 26.4707 62.9891 26.5222C63.011 26.5737 63.0223 26.6291 63.0225 26.6851V28.4025C62.9909 28.4987 62.9239 28.5791 62.835 28.6275C62.7954 28.669 62.7476 28.7017 62.6947 28.7237C62.6418 28.7456 62.5848 28.7563 62.5275 28.755H57.5775V30.5625H62.1975C62.2536 30.5619 62.3093 30.5728 62.3609 30.5948C62.4126 30.6167 62.4591 30.6492 62.4975 30.69C62.5823 30.7731 62.6308 30.8864 62.6325 31.005V32.7075C62.6308 32.8262 62.5823 32.9395 62.4975 33.0225C62.4596 33.0636 62.413 33.0958 62.3611 33.1165C62.3092 33.1373 62.2533 33.1462 62.1975 33.1425H57.5775V34.92Z" fill="#FFFFFF"/>
<path d="M73.8375 35.055C73.8804 35.0927 73.9151 35.1388 73.9396 35.1904C73.9641 35.2419 73.9779 35.298 73.98 35.355V37.0725C73.9779 37.1296 73.9641 37.1856 73.9396 37.2372C73.9151 37.2888 73.8804 37.3348 73.8375 37.3725C73.7993 37.4138 73.7529 37.4465 73.7011 37.4685C73.6494 37.4904 73.5937 37.5012 73.5375 37.5H66.0375C65.9792 37.5006 65.9213 37.4896 65.8672 37.4677C65.8132 37.4458 65.764 37.4135 65.7225 37.3725C65.6814 37.3346 65.6493 37.288 65.6285 37.2361C65.6077 37.1842 65.5988 37.1283 65.6025 37.0725V26.685C65.5994 26.6293 65.6085 26.5736 65.6292 26.5217C65.65 26.4699 65.6818 26.4233 65.7225 26.385C65.7679 26.3383 65.823 26.3021 65.8839 26.2788C65.9447 26.2555 66.0099 26.2457 66.075 26.25H68.19C68.2464 26.2516 68.302 26.2644 68.3535 26.2875C68.405 26.3107 68.4514 26.3438 68.49 26.385C68.5301 26.424 68.5621 26.4706 68.584 26.5222C68.6059 26.5737 68.6173 26.6291 68.6175 26.685V34.935H73.5375C73.6493 34.9342 73.757 34.9773 73.8375 35.055V35.055Z" fill="#FFFFFF"/>
<path d="M84.75 35.055C84.8252 35.1378 84.8701 35.2435 84.8775 35.355V37.0725C84.8701 37.1841 84.8252 37.2898 84.75 37.3725C84.7085 37.4135 84.6593 37.4459 84.6053 37.4677C84.5512 37.4896 84.4934 37.5006 84.4351 37.5H75.75C75.6347 37.5 75.5241 37.4541 75.4425 37.3725C75.4017 37.3341 75.3692 37.2876 75.3473 37.2359C75.3253 37.1843 75.3144 37.1287 75.315 37.0725V35.415C75.3088 35.3091 75.3295 35.2034 75.375 35.1075C75.4289 35.016 75.4891 34.9283 75.555 34.845L80.7151 28.7625H75.8701C75.7567 28.7625 75.6479 28.7175 75.5678 28.6373C75.4876 28.5572 75.4425 28.4484 75.4425 28.335V26.6851C75.4427 26.6291 75.4541 26.5737 75.476 26.5222C75.4979 26.4707 75.5299 26.424 75.57 26.385C75.6081 26.3432 75.6544 26.3096 75.706 26.2863C75.7576 26.2631 75.8135 26.2508 75.8701 26.25H84.1875C84.2466 26.2491 84.3052 26.2607 84.3594 26.284C84.4137 26.3072 84.4625 26.3417 84.5025 26.385C84.5432 26.4233 84.5751 26.4699 84.5958 26.5218C84.6165 26.5736 84.6256 26.6293 84.6226 26.6851V28.3125C84.6261 28.4115 84.61 28.5101 84.5753 28.6028C84.5405 28.6955 84.4878 28.7804 84.42 28.8526L79.26 34.9575H84.3526C84.4218 34.9418 84.4938 34.9424 84.5628 34.9594C84.6318 34.9763 84.6959 35.0091 84.75 35.055V35.055Z" fill="#FFFFFF"/>
<path d="M95.25 29.5951C95.1894 29.6551 95.1099 29.6922 95.025 29.7001H93C92.8821 29.7027 92.765 29.6823 92.655 29.6401C92.5523 29.5909 92.4585 29.525 92.3775 29.4451L92.175 29.2426C92.0198 29.0981 91.8357 28.9882 91.635 28.9201C91.3653 28.8244 91.0811 28.7762 90.7949 28.7776C90.417 28.769 90.0408 28.83 89.685 28.9576C89.5587 29.0021 89.4499 29.0858 89.3743 29.1964C89.2988 29.307 89.2605 29.4387 89.2649 29.5726C89.2614 29.6698 89.2839 29.7663 89.33 29.8519C89.3762 29.9376 89.4443 30.0095 89.5275 30.0601C89.7802 30.2121 90.0565 30.3211 90.345 30.3826C90.72 30.4726 91.35 30.6151 92.2725 30.8026C93.225 30.938 94.1237 31.3265 94.875 31.9276C95.3696 32.4627 95.6607 33.1544 95.6977 33.8821C95.7347 34.6099 95.5152 35.3275 95.0774 35.9101C94.6248 36.4504 94.0337 36.8575 93.3675 37.0876C92.5717 37.3741 91.7306 37.5139 90.885 37.5001C90.0537 37.5096 89.2292 37.3488 88.4624 37.0276C87.7994 36.7724 87.2094 36.3577 86.745 35.8201C86.359 35.3937 86.1289 34.849 86.0925 34.2751C86.0892 34.2303 86.0963 34.1853 86.1132 34.1437C86.1301 34.1021 86.1564 34.0649 86.1899 34.0351C86.2181 34.0029 86.2526 33.9769 86.2914 33.9588C86.3301 33.9408 86.3722 33.931 86.415 33.9301H88.4624C88.6785 33.9305 88.8868 34.0106 89.0475 34.1551L89.2575 34.3876C89.4303 34.566 89.6403 34.7043 89.8725 34.7926C90.1706 34.9119 90.4888 34.973 90.81 34.9726C92.0925 34.9726 92.7375 34.7026 92.7375 34.1476C92.7351 34.0556 92.709 33.9659 92.6617 33.887C92.6144 33.8081 92.5475 33.7429 92.4675 33.6976C92.2332 33.5619 91.9806 33.4609 91.7175 33.3976C91.38 33.3151 90.855 33.1876 90.12 33.0451L89.4225 32.9026C88.5477 32.7618 87.7353 32.3621 87.09 31.7551C86.5684 31.1661 86.299 30.3958 86.34 29.6101C86.3356 29.009 86.525 28.4226 86.8799 27.9376C87.2815 27.3963 87.82 26.9718 88.4399 26.7076C89.1695 26.3984 89.9538 26.239 90.7462 26.239C91.5386 26.239 92.3229 26.3984 93.0525 26.7076C93.6829 26.9726 94.2446 27.3779 94.695 27.8926C95.0547 28.2765 95.2741 28.7707 95.3174 29.2951C95.3343 29.3465 95.3369 29.4016 95.3251 29.4544C95.3132 29.5072 95.2872 29.5558 95.25 29.5951V29.5951Z" fill="#FFFFFF"/>
<path d="M104.25 26.8125C104.934 27.1473 105.511 27.6669 105.915 28.3125C106.311 28.9632 106.536 29.7039 106.568 30.465V33.24C106.536 34.0012 106.311 34.7418 105.915 35.3925C105.511 36.0381 104.934 36.5577 104.25 36.8925C103.448 37.2629 102.576 37.4548 101.693 37.4548C100.809 37.4548 99.9367 37.2629 99.135 36.8925C98.4509 36.5577 97.8741 36.0381 97.47 35.3925C97.0738 34.7418 96.8493 34.0012 96.8175 33.24V30.465C96.8493 29.7039 97.0738 28.9632 97.47 28.3125C97.8741 27.6669 98.4509 27.1473 99.135 26.8125C99.9367 26.4421 100.809 26.2502 101.693 26.2502C102.576 26.2502 103.448 26.4421 104.25 26.8125V26.8125ZM103.103 29.25C102.699 28.9362 102.203 28.7658 101.693 28.7658C101.182 28.7658 100.686 28.9362 100.283 29.25C99.9404 29.6112 99.736 30.081 99.705 30.5775V33.2025C99.736 33.699 99.9404 34.1689 100.283 34.53C100.686 34.8438 101.182 35.0142 101.693 35.0142C102.203 35.0142 102.699 34.8438 103.103 34.53C103.44 34.1664 103.641 33.6975 103.673 33.2025V30.5775C103.653 30.0664 103.451 29.5792 103.103 29.205V29.25Z" fill="#FFFFFF"/>
<path d="M117.285 35.055C117.327 35.0931 117.36 35.1393 117.384 35.191C117.407 35.2426 117.419 35.2984 117.42 35.355V37.0725C117.419 37.1291 117.407 37.1849 117.384 37.2365C117.36 37.2882 117.327 37.3344 117.285 37.3725C117.246 37.4127 117.199 37.4446 117.148 37.4665C117.096 37.4884 117.041 37.4998 116.985 37.5H109.5C109.443 37.5013 109.386 37.4906 109.333 37.4686C109.28 37.4467 109.232 37.414 109.192 37.3725C109.152 37.3341 109.119 37.2875 109.097 37.2359C109.075 37.1843 109.064 37.1286 109.065 37.0725V26.685C109.069 26.5708 109.116 26.4623 109.197 26.3816C109.277 26.3008 109.386 26.2537 109.5 26.25H111.615C111.728 26.2571 111.835 26.3052 111.915 26.3853C111.995 26.4654 112.043 26.572 112.05 26.685V34.935H117C117.106 34.9387 117.208 34.9814 117.285 35.055V35.055Z" fill="#FFFFFF"/>
<path d="M128.25 31.875V33C128.237 33.8271 128.001 34.6353 127.568 35.34C127.139 36.0168 126.532 36.5619 125.813 36.915C125.016 37.3183 124.132 37.5168 123.24 37.4925H118.883C118.77 37.4906 118.662 37.4449 118.582 37.3652C118.503 37.2854 118.457 37.1778 118.455 37.065V37.065V26.685C118.455 26.629 118.467 26.5736 118.489 26.5221C118.51 26.4706 118.542 26.424 118.583 26.385C118.621 26.3431 118.667 26.3095 118.719 26.2863C118.77 26.2631 118.826 26.2507 118.883 26.25H123.158C124.062 26.2355 124.956 26.436 125.768 26.835C126.503 27.1942 127.124 27.7502 127.563 28.4414C128.001 29.1325 128.239 29.9317 128.25 30.75C128.25 31.32 128.25 31.7025 128.25 31.875ZM121.395 28.7925V34.92H123.12C124.478 34.92 125.175 34.305 125.235 33.0675V30.6525C125.238 30.392 125.186 30.1338 125.083 29.8948C124.98 29.6557 124.827 29.4411 124.635 29.265C124.177 28.9247 123.614 28.7573 123.045 28.7925H121.395Z" fill="#FFFFFF"/>
<path d="M136.83 26.8125C137.508 27.1539 138.08 27.6722 138.488 28.3125C138.888 28.9614 139.113 29.7031 139.14 30.465V33.24C139.113 34.0019 138.888 34.7436 138.488 35.3925C138.08 36.0328 137.508 36.5511 136.83 36.8925C136.027 37.2631 135.153 37.455 134.269 37.455C133.384 37.455 132.511 37.2631 131.708 36.8925C131.023 36.5559 130.444 36.0368 130.035 35.3925C129.641 34.7411 129.42 34.0005 129.39 33.24V30.465C129.42 29.7045 129.641 28.9639 130.035 28.3125C130.444 27.6681 131.023 27.1491 131.708 26.8125C132.511 26.4419 133.384 26.25 134.269 26.25C135.153 26.25 136.027 26.4419 136.83 26.8125V26.8125ZM135.683 29.25C135.279 28.9362 134.783 28.7658 134.273 28.7658C133.762 28.7658 133.266 28.9362 132.863 29.25C132.52 29.6111 132.316 30.081 132.285 30.5775C132.285 30.915 132.24 31.3275 132.24 31.875C132.23 32.318 132.245 32.7612 132.285 33.2025C132.316 33.699 132.52 34.1688 132.863 34.53C133.266 34.8438 133.762 35.0142 134.273 35.0142C134.783 35.0142 135.279 34.8438 135.683 34.53C136.022 34.1685 136.221 33.6978 136.245 33.2025V31.86C136.268 31.4278 136.268 30.9947 136.245 30.5625C136.236 30.0508 136.035 29.5611 135.683 29.19V29.25Z" fill="#FFFFFF"/>
<path d="M149.587 29.5724C149.559 29.6046 149.525 29.6305 149.486 29.6486C149.447 29.6667 149.405 29.6765 149.362 29.6774H147.315C147.199 29.6837 147.084 29.6632 146.977 29.6174C146.87 29.5683 146.772 29.5025 146.685 29.4224L146.482 29.2199C146.333 29.0722 146.15 28.9617 145.95 28.8974C145.675 28.801 145.386 28.7528 145.095 28.7549C144.721 28.7389 144.349 28.8001 144 28.9349C143.87 28.9772 143.757 29.0609 143.678 29.1732C143.6 29.2856 143.56 29.4204 143.565 29.5574C143.563 29.6544 143.586 29.7503 143.632 29.8357C143.678 29.9211 143.745 29.9932 143.827 30.0449C144.083 30.1947 144.362 30.3011 144.652 30.3599C145.02 30.4574 145.657 30.5999 146.58 30.7874C147.53 30.9231 148.426 31.3116 149.175 31.9124C149.669 32.4494 149.959 33.1422 149.996 33.8708C150.033 34.5995 149.814 35.3181 149.377 35.9024C148.929 36.4519 148.333 36.8628 147.66 37.0874C146.862 37.374 146.018 37.5138 145.17 37.4999C144.336 37.5087 143.51 37.348 142.74 37.0274C142.07 36.7727 141.473 36.3582 141 35.8199C140.617 35.3879 140.385 34.8429 140.34 34.2674C140.34 34.2223 140.349 34.1776 140.367 34.1363C140.385 34.0949 140.412 34.0578 140.445 34.0274C140.473 33.9952 140.508 33.9693 140.546 33.9512C140.585 33.9331 140.627 33.9233 140.67 33.9224H142.717C142.936 33.9202 143.148 34.0006 143.31 34.1474L143.565 34.4174C143.735 34.5957 143.943 34.734 144.172 34.8224C144.471 34.9418 144.789 35.0029 145.11 35.0024C146.407 35.0024 147.045 34.7324 147.045 34.1774C147.046 34.0848 147.021 33.9938 146.973 33.9143C146.926 33.8349 146.857 33.7702 146.775 33.7274C146.543 33.5862 146.29 33.4848 146.025 33.4274C145.695 33.3374 145.162 33.2174 144.427 33.0674L143.737 32.9249C142.857 32.7892 142.038 32.389 141.39 31.7774C140.868 31.1884 140.599 30.4181 140.64 29.6324C140.639 29.0272 140.834 28.4379 141.195 27.9524C141.593 27.4107 142.129 26.9858 142.747 26.7224C143.479 26.4107 144.266 26.25 145.061 26.25C145.856 26.25 146.643 26.4107 147.375 26.7224C148.027 26.9854 148.608 27.3992 149.07 27.9299C149.431 28.3146 149.655 28.8075 149.707 29.3324C149.7 29.4249 149.657 29.5108 149.587 29.5724V29.5724Z" fill="#FFFFFF"/>
</svg>
